<?xml version="1.0" standalone="no"?>
<!DOCTYPE svg PUBLIC "-//W3C//DTD SVG 20010904//EN"
 "http://www.w3.org/TR/2001/REC-SVG-20010904/DTD/svg10.dtd">
<svg version="1.0" xmlns="http://www.w3.org/2000/svg"
 width="512.000000pt" height="512.000000pt" viewBox="0 0 512.000000 512.000000"
 preserveAspectRatio="xMidYMid meet">
<metadata>
Created by potrace 1.14, written by Peter Selinger 2001-2017
</metadata>
<g transform="translate(0.000000,512.000000) scale(0.100000,-0.100000)"
fill="#000000" stroke="none">
<path d="M1841 4995 c-1 -79 2 -125 9 -125 5 0 10 8 10 17 0 14 3 13 16 -5 22
-31 39 -17 18 15 -15 24 -15 26 0 20 19 -7 19 -6 6 27 -6 17 -6 26 0 26 6 0
10 -8 10 -18 0 -22 9 -34 21 -26 5 2 4 16 -2 31 -16 43 -3 37 20 -9 20 -42 22
-43 61 -40 24 3 40 9 40 17 0 7 7 15 14 18 11 4 13 1 9 -11 -5 -14 -4 -15 8
-6 15 12 65 -7 52 -19 -3 -4 -1 -7 5 -7 18 0 24 20 8 26 -9 3 -16 11 -16 16 0
7 5 6 13 -1 9 -7 17 -7 24 0 7 7 12 5 17 -6 4 -11 2 -14 -7 -9 -9 5 -9 4 0 -6
10 -11 16 -9 32 11 11 13 20 18 21 12 0 -21 17 -15 25 10 7 20 8 19 12 -12 4
-32 5 -33 19 -12 12 16 12 25 4 42 -7 11 -9 23 -7 26 3 2 8 -5 12 -16 3 -12
10 -19 15 -16 4 3 6 -4 3 -15 -6 -22 12 -28 20 -6 3 7 8 35 12 62 3 27 8 64
11 82 l5 32 -76 0 c-73 0 -75 -1 -65 -20 8 -15 8 -20 -1 -20 -6 0 -9 -6 -6
-14 9 -22 -23 -28 -50 -11 -13 9 -39 15 -56 14 -18 -2 -65 1 -106 5 -60 7 -74
12 -78 27 -4 14 -15 19 -43 19 l-38 0 -1 -125z"/>
<path d="M3409 5098 c-1 -13 -3 -32 -4 -43 -6 -54 -16 -201 -20 -292 -4 -92
-2 -103 13 -104 9 -1 26 -3 37 -5 65 -11 82 -11 100 -2 14 6 13 3 -5 -11 -28
-22 -23 -33 14 -33 15 0 23 -5 19 -11 -4 -6 8 -8 35 -4 23 3 42 1 42 -4 0 -5
-4 -9 -10 -9 -5 0 -10 -5 -10 -11 0 -11 16 -10 110 6 16 3 13 0 -8 -7 -36 -12
-38 -35 -3 -30 13 2 20 -1 19 -9 -5 -21 50 -43 76 -31 36 17 56 22 56 12 0 -5
-9 -12 -20 -15 -27 -9 -26 -25 2 -17 14 3 19 2 14 -6 -4 -7 -3 -12 3 -12 5 0
13 5 16 10 3 6 12 10 18 10 7 0 6 -4 -3 -10 -13 -8 -12 -10 3 -10 10 0 28 10
40 23 12 13 16 16 10 7 -20 -26 -15 -35 7 -15 11 10 23 16 26 12 3 -3 -4 -10
-15 -17 -12 -6 -18 -16 -15 -22 4 -6 3 -8 -4 -4 -6 3 -14 1 -18 -5 -5 -9 1
-10 23 -6 19 4 37 1 49 -8 11 -8 33 -15 49 -15 20 0 26 -3 17 -9 -21 -13 23
-21 60 -10 44 12 48 3 7 -15 l-34 -15 50 6 c28 3 67 9 89 15 49 12 58 4 12
-12 -39 -13 -67 -39 -45 -42 8 -1 -11 -4 -41 -8 l-55 -7 75 -2 c94 -3 131 -16
45 -16 -38 0 -69 -5 -77 -12 -9 -10 -7 -13 13 -13 20 0 21 -2 9 -11 -12 -8 -8
-9 15 -5 17 3 24 3 18 0 -25 -11 -13 -24 27 -30 22 -4 37 -11 34 -15 -3 -5 -1
-8 4 -7 19 6 129 -57 139 -78 8 -18 7 -21 -3 -17 -8 3 -14 10 -14 17 0 6 -22
21 -48 34 -44 22 -49 22 -82 8 l-35 -15 33 -1 c20 0 31 4 27 10 -3 6 -2 10 3
10 6 0 9 -11 8 -24 -1 -21 -5 -24 -28 -19 -58 12 -9 -29 51 -43 7 -1 26 -14
40 -28 15 -14 33 -26 40 -26 16 0 191 -129 191 -141 0 -5 16 -17 35 -26 19 -9
35 -21 35 -25 0 -5 -9 -4 -21 2 -36 20 -30 5 21 -51 27 -30 50 -61 50 -69 -1
-15 -18 2 -47 46 -10 15 -10 13 -1 -11 16 -40 38 -58 54 -44 16 13 42 -14 72
-73 11 -24 40 -62 64 -85 47 -46 148 -123 160 -123 5 0 8 -5 8 -11 0 -19 44
-48 65 -44 11 3 14 2 7 -1 -6 -3 -10 -10 -6 -15 8 -13 -10 -11 -24 3 -7 7 -12
8 -12 4 0 -9 41 -45 52 -46 4 0 7 405 8 900 l0 900 -855 0 -855 0 -1 -22z m22
-431 c-10 -9 -11 -8 -5 6 3 10 9 15 12 12 3 -3 0 -11 -7 -18z m359 -157 c8 -5
11 -10 5 -10 -5 0 -17 5 -25 10 -8 5 -10 10 -5 10 6 0 17 -5 25 -10z m565
-370 c-3 -5 -13 -10 -21 -10 -8 0 -14 5 -14 10 0 6 9 10 21 10 11 0 17 -4 14
-10z m275 -225 c17 -9 30 -18 30 -21 0 -4 -59 23 -69 32 -10 9 13 3 39 -11z
m230 -282 c8 -7 24 -20 35 -29 11 -9 -2 -4 -30 12 -61 33 -66 37 -40 32 11 -1
26 -9 35 -15z m105 -1 c-3 -3 -11 0 -18 7 -9 10 -8 11 6 5 10 -3 15 -9 12 -12z
m-55 -90 c-7 -3 -19 3 -28 13 -16 15 -15 16 12 4 15 -7 23 -15 16 -17z m101
-39 c13 -16 12 -17 -3 -4 -17 13 -22 21 -14 21 2 0 10 -8 17 -17z"/>
<path d="M1940 4903 c0 -6 8 -17 18 -24 16 -13 16 -13 2 6 -8 11 -16 22 -17
24 -2 2 -3 0 -3 -6z"/>
<path d="M46 4723 c-3 -10 -6 -67 -8 -128 -3 -105 -2 -110 17 -107 39 7 48 28
55 129 3 54 4 104 2 111 -7 19 -60 15 -66 -5z"/>
<path d="M230 4733 c-8 -3 -21 -12 -27 -21 -16 -20 -17 -158 -2 -168 6 -3 8
-17 5 -30 -5 -17 -2 -24 8 -24 28 0 40 45 50 182 3 49 -8 69 -34 61z"/>
<path d="M356 4715 c-10 -11 -16 -34 -17 -68 0 -29 -4 -73 -8 -99 -9 -55 -2
-73 28 -63 26 8 39 55 43 160 3 67 0 80 -13 83 -9 2 -24 -4 -33 -13z"/>
<path d="M492 4708 c-11 -14 -34 -207 -26 -220 3 -4 12 -8 19 -8 28 0 44 45
51 143 7 93 6 97 -13 97 -11 0 -25 -6 -31 -12z"/>
<path d="M328 4363 c-18 -5 -24 -22 -33 -108 -4 -33 -9 -68 -11 -77 -4 -14 1
-18 18 -18 39 0 45 12 55 107 9 95 6 103 -29 96z"/>
<path d="M468 4363 c-19 -5 -21 -11 -38 -107 -11 -64 -8 -77 18 -75 13 1 13 2
-2 6 -17 4 -15 7 11 18 28 12 31 17 38 80 7 70 2 84 -27 78z"/>
<path d="M10 4335 c-13 -35 -13 -245 0 -245 6 0 19 9 29 19 20 20 30 73 34
186 2 59 1 60 -25 63 -22 3 -30 -2 -38 -23z"/>
<path d="M170 4334 c-13 -32 -30 -145 -30 -196 0 -31 4 -38 20 -38 11 0 19 4
17 9 -1 5 6 16 16 23 13 10 18 35 24 121 6 105 6 107 -16 107 -14 0 -25 -9
-31 -26z"/>
<path d="M284 4139 c-14 -23 13 -30 37 -10 l24 20 -27 1 c-15 0 -30 -5 -34
-11z"/>
<path d="M4370 4006 c0 -2 8 -10 18 -17 15 -13 16 -12 3 4 -13 16 -21 21 -21
13z"/>
<path d="M4423 3986 c15 -14 36 -26 45 -25 14 0 14 2 2 6 -8 3 -28 15 -45 25
l-30 20 28 -26z"/>
<path d="M4480 3936 c0 -17 1 -17 38 -21 13 -1 28 -7 35 -14 6 -6 18 -11 27
-11 16 0 -41 40 -62 44 -7 1 -19 5 -25 9 -8 5 -13 3 -13 -7z"/>
<path d="M4564 3871 c3 -5 16 -11 28 -14 22 -6 22 -5 4 8 -22 17 -40 20 -32 6z"/>
<path d="M4602 3820 c7 -11 16 -20 20 -20 5 0 3 9 -4 20 -7 11 -16 20 -20 20
-5 0 -3 -9 4 -20z"/>
<path d="M4570 3806 c0 -2 8 -10 18 -17 15 -13 16 -12 3 4 -13 16 -21 21 -21
13z"/>
<path d="M4641 3753 c7 -12 15 -20 18 -17 3 2 -3 12 -13 22 -17 16 -18 16 -5
-5z"/>
<path d="M4730 3703 c0 -5 9 -18 20 -28 11 -10 20 -14 20 -8 0 5 -9 18 -20 28
-11 10 -20 14 -20 8z"/>
<path d="M4725 3668 c16 -15 34 -28 39 -28 5 0 -4 10 -20 22 -44 33 -53 36
-19 6z"/>
<path d="M4760 3616 c0 -2 8 -10 18 -17 15 -13 16 -12 3 4 -13 16 -21 21 -21
13z"/>
<path d="M4800 3586 c0 -2 8 -10 18 -17 15 -13 16 -12 3 4 -13 16 -21 21 -21
13z"/>
<path d="M1156 3448 c3 -5 10 -6 15 -3 13 9 11 12 -6 12 -8 0 -12 -4 -9 -9z"/>
<path d="M1779 3447 c6 -8 7 -18 3 -22 -4 -5 -1 -5 6 -1 10 6 10 11 1 22 -6 8
-14 14 -16 14 -3 0 0 -6 6 -13z"/>
<path d="M1975 3450 c-16 -7 -17 -9 -3 -9 9 -1 20 4 23 9 7 11 7 11 -20 0z"/>
<path d="M1114 3428 c-4 -7 -3 -8 4 -4 7 4 12 2 12 -3 0 -6 -5 -11 -12 -11 -6
0 -9 -2 -6 -5 9 -10 35 5 35 20 0 18 -23 20 -33 3z"/>
<path d="M1892 3422 c-13 -10 -24 -27 -24 -38 -1 -11 -8 -21 -15 -21 -9 0 -10
4 -2 14 13 14 -4 43 -25 43 -6 0 -4 -5 4 -10 10 -6 11 -10 3 -10 -7 0 -13 -6
-13 -13 0 -8 -9 -13 -22 -12 -14 1 -23 8 -22 18 1 9 -4 13 -12 10 -8 -3 -12
-8 -9 -12 9 -16 -31 -7 -51 11 -21 19 -43 10 -29 -12 10 -16 -59 1 -72 18 -17
21 -16 2 1 -20 7 -10 17 -14 21 -10 5 4 5 1 1 -6 -4 -7 -12 -10 -17 -7 -5 4
-9 1 -9 -4 0 -14 -37 -14 -45 -1 -4 6 -11 8 -16 4 -5 -3 -7 -10 -4 -15 3 -5
-1 -6 -9 -3 -9 3 -16 1 -16 -6 0 -6 -4 -9 -8 -6 -5 3 -8 -5 -7 -17 1 -12 6
-20 11 -17 5 3 8 8 7 13 -2 4 2 7 7 7 14 0 12 -17 -2 -26 -7 -5 -20 -9 -30 -9
-13 -1 -15 2 -7 16 7 14 6 17 -5 13 -8 -3 -17 -1 -21 5 -3 6 1 11 9 11 9 0 16
5 16 10 0 6 10 15 23 20 12 5 15 9 7 9 -8 0 -23 -6 -33 -14 -11 -7 -25 -11
-33 -8 -9 3 -13 0 -10 -8 2 -8 7 -27 11 -42 5 -24 4 -27 -9 -15 -7 7 -12 16
-9 21 2 4 0 7 -6 7 -5 0 -11 8 -13 18 -3 14 -5 13 -10 -6 -3 -12 -2 -20 3 -16
5 3 9 -1 9 -9 0 -10 -7 -13 -20 -10 -11 3 -17 10 -13 16 3 5 1 7 -5 3 -6 -3
-13 -2 -17 4 -3 5 -12 10 -18 10 -8 0 -7 -3 2 -9 11 -7 10 -11 -7 -20 -29 -16
-34 -14 -27 9 10 33 -3 23 -21 -16 -11 -24 -20 -32 -27 -25 -7 7 -6 16 4 28
12 16 12 17 -2 6 -9 -7 -19 -9 -24 -5 -4 4 -2 -3 4 -16 10 -18 9 -23 -4 -28
-17 -7 -21 -34 -4 -34 5 0 8 4 4 9 -3 5 -1 12 4 15 5 4 8 -2 7 -11 -2 -9 -8
-19 -14 -21 -6 -2 -8 -10 -5 -18 3 -9 -1 -14 -12 -14 -9 0 -14 4 -11 9 4 5 0
12 -6 14 -8 3 -6 6 5 6 10 1 16 5 12 10 -3 5 -19 9 -35 9 -17 -1 -27 -5 -23
-11 3 -6 1 -7 -5 -3 -9 5 -8 12 1 27 9 15 13 16 15 5 2 -8 11 -12 22 -9 11 3
17 9 15 14 -3 4 3 12 12 18 11 6 13 11 5 11 -7 0 -10 5 -6 12 4 7 3 8 -5 4 -8
-6 -10 -1 -6 17 5 20 1 25 -27 35 -18 7 -22 10 -9 7 17 -3 21 -1 13 7 -6 6
-20 7 -33 2 -13 -4 -28 -7 -32 -6 -5 1 -5 -2 -2 -8 4 -6 12 -9 19 -7 6 3 20
-1 30 -9 11 -7 24 -11 29 -7 7 4 8 -1 4 -12 -4 -9 -2 -24 5 -33 11 -13 10 -14
-2 -10 -8 2 -16 15 -18 27 -3 17 -9 22 -23 18 -10 -3 -17 -1 -13 4 3 5 -2 9
-11 9 -10 0 -13 -5 -9 -12 4 -7 4 -10 0 -6 -5 4 -24 -2 -43 -13 -37 -21 -63
-19 -63 3 0 9 3 9 11 -2 9 -13 10 -13 6 0 -2 8 -11 14 -20 14 -9 -1 -15 3 -14
10 1 6 -8 10 -19 8 -13 -2 -24 4 -28 13 -3 9 -2 13 3 10 5 -3 12 -1 16 5 3 5
11 10 17 10 7 0 7 -4 -1 -13 -8 -10 -7 -14 4 -14 8 0 15 4 15 9 0 4 11 8 25 8
18 0 23 -4 19 -15 -5 -13 -9 -13 -23 -3 -14 12 -15 11 -2 -5 15 -18 15 -18 28
0 8 10 16 17 19 15 3 -2 9 -1 12 3 4 4 0 5 -8 3 -10 -2 -15 5 -14 21 1 20 -1
22 -10 9 -9 -12 -23 -15 -53 -11 -33 4 -43 1 -55 -16 -8 -12 -19 -18 -24 -13
-4 4 -2 -1 5 -10 9 -12 10 -18 2 -19 -38 -5 -60 -20 -54 -37 5 -16 5 -16 -8
-1 -10 13 -19 15 -34 8 -20 -9 -20 -9 1 -6 15 3 20 -1 20 -19 0 -12 -3 -21 -6
-19 -3 2 -14 -3 -25 -11 -19 -14 -19 -14 1 -29 13 -11 14 -14 4 -13 -11 2 -15
-6 -13 -33 1 -33 -1 -36 -20 -31 -20 5 -21 4 -7 -13 13 -17 13 -18 -1 -13 -9
4 -16 1 -16 -8 0 -7 3 -11 7 -9 4 2 7 -2 7 -9 0 -8 -5 -12 -12 -10 -6 3 -11
-5 -12 -16 -1 -12 4 -23 12 -26 11 -5 12 -9 2 -19 -13 -14 -31 -9 -22 6 4 5 3
9 -2 10 -4 0 -16 2 -25 4 -10 2 -22 -4 -27 -12 -5 -10 -11 -12 -15 -5 -3 5 1
13 10 16 8 3 12 10 9 16 -3 5 -2 10 3 10 19 0 1 35 -23 46 -22 11 -24 10 -15
-5 6 -12 3 -27 -10 -49 -19 -30 -19 -31 0 -37 11 -4 20 -10 20 -15 0 -6 -10
-6 -24 0 -45 17 -63 -32 -24 -66 12 -10 18 -13 14 -7 -5 9 -2 11 9 7 12 -5 13
-9 3 -21 -9 -11 -9 -16 3 -24 8 -5 9 -9 4 -9 -6 0 -17 6 -24 13 -10 10 -10 7
-3 -13 5 -14 8 -33 7 -42 -2 -10 2 -21 7 -25 7 -3 8 -1 4 5 -4 7 -2 12 3 12 6
0 11 -7 11 -15 0 -9 9 -15 21 -15 16 0 20 -4 14 -17 -5 -15 -4 -16 7 -5 10 10
10 16 0 32 -16 26 5 28 24 3 12 -16 12 -16 7 6 -5 18 -3 22 6 16 10 -6 11 -3
2 13 -16 29 -14 39 3 16 14 -18 15 -18 25 9 6 15 15 27 21 27 6 0 8 -5 4 -12
-4 -7 -3 -8 4 -4 15 9 3 38 -12 30 -6 -4 -1 4 11 17 19 19 25 21 35 10 7 -7 9
-12 3 -11 -20 4 -38 0 -31 -7 10 -11 36 -12 36 -2 0 5 4 9 9 9 10 0 8 -43 -4
-80 -8 -25 -35 -58 -35 -43 0 4 -5 0 -11 -11 -14 -22 4 -43 41 -49 34 -6 180
-78 180 -89 0 -4 9 -8 21 -8 11 0 17 -4 14 -10 -3 -5 3 -10 13 -10 17 0 36
-30 33 -52 -1 -5 8 -8 19 -8 21 0 27 -19 10 -36 -7 -7 -2 -10 15 -10 28 0 31
6 13 25 -11 10 -10 11 3 6 21 -8 29 -58 12 -74 -10 -9 -13 -8 -13 6 0 13 -9
19 -35 20 -41 3 -42 0 -15 -30 16 -17 23 -19 29 -9 7 11 9 11 13 0 3 -7 17
-14 32 -16 28 -2 27 -4 12 66 -3 13 -1 20 5 17 5 -4 9 -13 9 -21 0 -8 5 -14
11 -14 5 0 7 6 4 13 -4 6 0 5 7 -3 8 -8 20 -21 28 -29 13 -12 13 -13 0 -9 -8
3 -21 -1 -28 -8 -10 -11 -8 -15 8 -24 28 -15 40 -5 36 31 -3 23 -1 27 10 18 7
-5 29 -12 50 -15 20 -2 41 -7 46 -10 5 -3 16 0 25 8 9 7 14 8 10 2 -4 -7 2
-11 18 -11 14 0 25 3 25 7 0 11 90 6 90 -5 0 -5 5 -3 10 5 8 13 10 13 10 1 0
-11 4 -10 16 5 8 10 12 13 8 5 -5 -10 -3 -12 6 -6 7 4 48 7 92 7 67 0 76 2 61
13 -29 21 -11 26 50 14 54 -11 57 -11 76 12 18 22 20 22 26 7 4 -10 12 -18 18
-18 7 0 7 4 -1 12 -7 7 -12 20 -12 30 0 15 3 17 19 8 14 -7 22 -7 26 1 4 6 14
8 22 5 11 -5 13 -2 9 10 -8 22 23 44 51 38 11 -3 31 -1 43 6 16 8 25 8 35 0 8
-7 27 -9 48 -5 20 4 43 2 53 -3 19 -11 43 -1 76 31 11 10 26 16 34 13 7 -3 13
-2 13 2 -4 22 4 28 31 24 21 -3 30 0 28 8 -2 7 5 14 15 15 14 3 18 -1 14 -16
-3 -10 -1 -19 4 -19 5 0 9 7 9 16 0 25 18 6 25 -26 4 -17 13 -30 22 -30 10 0
14 6 10 20 -3 11 -1 20 4 20 5 0 9 -7 9 -16 0 -8 5 -12 10 -9 6 3 10 -1 10
-10 0 -8 6 -18 14 -21 9 -4 12 -15 10 -34 -3 -15 0 -31 5 -35 7 -4 8 1 4 11
-4 12 -3 15 6 10 9 -6 11 2 9 31 -2 32 0 38 15 35 11 -2 17 4 17 15 0 15 2 16
10 3 6 -8 8 -28 5 -45 -4 -26 -4 -27 5 -7 16 37 28 25 23 -25 l-4 -48 21 37
c11 21 30 42 41 49 20 10 21 9 17 -19 -4 -29 -3 -29 26 -20 48 14 60 16 76 7
32 -16 60 -25 88 -28 6 0 12 -10 12 -20 0 -15 5 -18 22 -13 14 3 19 2 14 -6
-4 -8 0 -12 12 -12 10 0 33 -7 51 -16 17 -9 53 -17 79 -18 28 -1 61 -11 82
-24 19 -12 42 -22 51 -22 9 0 21 -12 27 -26 7 -14 16 -23 21 -20 5 3 11 -3 14
-14 3 -11 13 -20 22 -20 9 0 30 -11 47 -25 16 -14 38 -25 49 -25 10 0 19 -4
19 -10 0 -5 37 -27 83 -49 50 -25 86 -49 92 -63 13 -28 87 -65 156 -78 28 -6
96 -10 150 -10 59 0 99 -4 99 -10 0 -5 -17 -10 -37 -11 -29 0 -33 -2 -18 -8
11 -5 26 -6 33 -3 7 2 34 1 60 -3 l47 -8 -30 -13 -30 -13 32 -1 c17 0 35 -5
38 -10 3 -6 15 -10 26 -10 22 0 26 -18 5 -26 -8 -3 -12 -12 -10 -19 4 -10 -1
-12 -18 -8 -17 3 -19 2 -9 -5 8 -6 11 -17 8 -26 -3 -8 -2 -18 4 -22 6 -3 8
-12 5 -20 -3 -8 -1 -14 4 -14 6 0 10 7 10 15 0 8 5 15 10 15 6 0 10 7 10 16 0
10 6 14 14 11 10 -4 14 7 15 46 1 60 4 77 14 95 5 6 5 17 2 22 -10 16 5 12 23
-7 9 -9 22 -30 29 -47 9 -24 12 -26 12 -10 1 11 -12 47 -29 80 l-30 59 30 -33
c16 -17 32 -32 35 -32 8 0 -16 54 -32 72 -9 10 -12 18 -6 18 12 0 55 -36 53
-44 -4 -15 7 -29 18 -22 7 4 8 14 2 30 -11 29 -7 61 8 62 23 3 24 4 11 21 -10
11 -10 14 -1 9 6 -4 12 -3 12 3 0 5 3 17 6 25 5 12 2 15 -10 10 -12 -5 -15 -2
-10 9 3 9 14 14 25 12 17 -4 18 -2 5 23 -16 33 -8 57 19 57 15 0 20 7 21 27 1
15 -2 25 -6 23 -6 -4 -13 22 -24 90 -2 9 -6 22 -26 71 -5 14 -4 26 3 34 9 10
9 11 0 6 -7 -4 -14 6 -18 26 -4 18 -12 38 -17 45 -5 7 -7 18 -3 25 4 7 -1 4
-9 -6 -15 -19 -16 -19 -16 9 0 15 -3 25 -6 22 -4 -3 -15 -2 -25 4 -24 12 -24
6 -2 -17 9 -9 19 -26 20 -37 3 -19 3 -19 -14 2 -12 14 -23 18 -31 12 -10 -6
-1 -16 32 -37 25 -16 46 -32 46 -36 0 -12 -10 -9 -38 10 -35 25 -62 34 -62 22
0 -6 6 -10 13 -11 6 0 3 -4 -8 -9 -11 -5 -14 -9 -7 -9 6 -1 12 -8 12 -16 0
-13 16 -19 41 -17 3 1 6 -6 6 -14 0 -16 0 -16 -50 -5 -31 8 -37 7 -33 -5 3 -8
1 -14 -4 -14 -6 0 -10 7 -10 15 0 8 -8 15 -17 14 -11 0 -13 -3 -5 -6 6 -2 12
-11 12 -18 0 -8 13 -13 34 -13 37 0 56 -8 56 -22 0 -4 -10 -5 -22 -2 -22 5
-22 5 -6 -12 10 -9 22 -15 27 -12 5 3 7 -2 4 -13 -3 -10 0 -22 6 -25 21 -13
11 -26 -15 -20 -17 4 -29 2 -35 -7 -5 -8 -9 -9 -9 -3 0 6 -14 11 -31 12 -23 0
-29 -3 -25 -14 6 -16 -4 -12 -37 15 -37 30 -57 55 -57 70 0 13 -2 13 -16 -1
-18 -18 -10 -42 12 -34 8 3 14 1 14 -4 0 -15 -30 -12 -46 4 -9 9 -10 17 -4 21
5 3 10 13 10 21 0 9 -5 12 -12 8 -7 -4 -8 -3 -4 5 4 6 13 8 19 4 7 -4 21 -9
32 -10 24 -4 45 -23 26 -23 -8 0 -2 -9 12 -20 30 -24 37 -25 37 -5 0 8 6 12
13 10 6 -2 27 -6 45 -9 28 -4 31 -2 21 10 -6 8 -14 12 -17 9 -3 -3 -12 1 -20
8 -13 10 -14 9 -7 -3 4 -8 -4 -4 -18 9 -29 26 -34 36 -14 26 6 -4 -1 5 -18 20
-16 14 -54 38 -83 52 -59 30 -192 150 -154 141 36 -10 25 10 -17 32 -22 11
-43 25 -47 32 -5 10 -4 10 6 1 9 -8 19 -9 36 -1 24 11 24 11 3 25 -11 8 -26
12 -34 9 -19 -7 -20 24 -2 43 7 9 7 11 1 8 -7 -4 -14 3 -18 18 -4 14 -11 25
-17 25 -8 0 -8 -4 -2 -12 6 -7 13 -22 16 -33 7 -18 6 -19 -6 -3 -8 10 -18 14
-22 10 -5 -4 -5 -2 -2 5 10 16 -3 44 -16 36 -7 -4 -8 0 -3 13 4 10 4 16 1 12
-13 -13 -44 30 -38 52 6 22 6 22 -21 5 -23 -16 -26 -16 -20 -1 3 9 10 14 14
11 4 -3 10 2 14 10 3 8 1 17 -5 20 -5 4 -7 10 -5 14 3 4 -1 8 -9 8 -11 0 -12
-4 -3 -14 18 -22 -27 -10 -59 15 -33 27 -48 28 -63 5 -10 -16 -11 -15 -7 4 4
19 2 21 -12 14 -11 -6 -23 -6 -32 0 -11 8 -10 9 5 7 10 -2 21 3 24 11 4 11 -3
13 -31 8 -25 -4 -37 -1 -41 8 -3 8 -1 17 4 20 6 4 10 1 10 -5 0 -7 5 -10 11
-8 38 13 -26 39 -99 41 l-34 0 23 18 c13 10 28 15 34 11 5 -3 2 4 -8 15 -15
17 -26 20 -60 16 -23 -3 -47 -6 -54 -6 -6 0 -8 -7 -5 -16 4 -10 7 -11 10 -3 2
7 13 12 23 12 11 0 17 -5 14 -10 -4 -6 -10 -8 -15 -5 -5 3 -11 1 -15 -4 -3 -5
-15 -8 -26 -6 -11 2 -22 -2 -26 -10 -3 -8 -9 -15 -15 -15 -5 0 -6 5 -3 10 3 6
1 10 -5 10 -6 0 3 14 20 30 17 17 27 30 22 30 -5 0 -15 -7 -22 -15 -8 -9 -18
-12 -27 -6 -20 11 -65 -10 -58 -27 7 -18 -14 -54 -26 -46 -6 3 -17 -2 -25 -12
-13 -18 -14 -17 -8 9 7 31 -11 38 -19 7 -3 -11 -10 -20 -16 -20 -6 0 -8 8 -5
18 5 14 4 14 -4 2 -8 -10 -8 -18 0 -27 8 -10 7 -12 -6 -7 -9 3 -16 13 -16 21
0 13 -3 13 -15 3 -8 -7 -13 -16 -10 -20 3 -5 -1 -11 -7 -14 -7 -4 -3 -4 10 -2
12 2 20 0 17 -4 -3 -5 1 -11 7 -14 9 -4 8 -5 -2 -5 -39 3 -43 0 -29 -18 8 -9
9 -14 3 -10 -7 4 -17 0 -24 -8 -7 -8 -9 -15 -5 -15 4 0 2 -6 -4 -14 -15 -18
-46 -13 -45 7 1 9 -1 16 -5 16 -14 -2 -51 14 -51 21 0 5 -9 6 -20 3 -13 -3
-20 0 -20 8 0 10 -3 10 -11 2 -6 -6 -19 -9 -28 -6 -14 4 -13 2 2 -10 9 -8 17
-19 17 -25 0 -12 -31 -32 -48 -32 -12 0 -10 26 3 37 4 4 5 3 1 -4 -3 -6 -2
-14 4 -18 5 -3 10 -1 10 5 0 6 5 8 12 4 6 -4 3 5 -8 19 -10 15 -26 27 -34 27
-13 0 -13 1 0 10 13 8 13 10 -2 10 -11 0 -15 5 -12 14 3 8 1 17 -4 20 -5 3 -8
-7 -6 -22 6 -49 -5 -79 -29 -78 -17 1 -23 8 -25 33 -3 32 -4 32 -27 17 -13 -9
-29 -13 -34 -10 -5 4 -12 2 -16 -4 -3 -5 -1 -10 6 -10 7 0 10 -2 7 -5 -3 -3
-16 -1 -29 4 -13 5 -18 10 -11 10 6 1 12 6 12 13 0 9 -3 9 -12 0 -7 -7 -13
-20 -13 -29 0 -9 -7 -18 -15 -20 -13 -4 -13 -3 0 6 12 9 12 11 -3 17 -9 3 -14
10 -11 15 3 5 -6 4 -20 -2 -14 -7 -23 -16 -20 -20 3 -5 -3 -9 -13 -9 -16 1
-15 3 5 20 23 19 22 47 0 34 -7 -4 -8 -2 -4 4 4 7 1 12 -8 12 -8 0 -19 6 -23
14 -4 8 -15 16 -23 18 -22 5 -42 56 -31 77 11 20 9 47 -4 58 -4 4 -5 2 -1 -4
4 -7 3 -13 -3 -13 -6 0 -13 -11 -17 -25 -8 -34 -23 -31 -31 6 -4 21 -8 26 -14
18 -4 -7 -5 -17 -3 -21 3 -4 0 -8 -5 -8 -15 0 -14 13 4 36 16 21 20 38 7 30
-5 -3 -8 15 -7 39 0 25 -3 45 -7 45 -4 0 -8 -7 -8 -15 0 -9 -11 -28 -25 -43
l-25 -26 11 37 c7 25 7 48 1 65 -10 26 -10 26 -17 -16 -5 -28 -11 -39 -16 -31
-4 7 -5 17 -3 21 3 4 0 8 -5 8 -6 0 -11 -4 -11 -9 0 -5 -9 -7 -20 -4 -11 3
-20 10 -20 15 0 5 4 7 9 4 5 -4 12 0 14 6 4 9 6 9 6 1 1 -6 10 -9 21 -6 26 7
17 21 -12 18 -13 -1 -29 -3 -37 -4 -10 -1 -12 -13 -8 -53 5 -45 4 -48 -4 -20
-5 18 -14 30 -19 27 -6 -4 -10 -1 -10 4 0 6 5 11 11 11 6 0 5 5 -3 13 -19 19
-108 16 -108 -3 0 -13 -1 -13 -10 0 -5 8 -10 10 -10 4 0 -6 -7 -11 -15 -11
-13 0 -13 2 -1 16 9 10 12 22 7 30 -5 8 -11 9 -15 3 -3 -6 0 -12 6 -14 17 -6
-30 -31 -59 -33 -18 0 -22 4 -17 17 3 10 0 18 -6 18 -6 0 -8 5 -5 10 9 14 3
12 -23 -8z m18 -22 c0 -5 -4 -10 -10 -10 -5 0 -10 5 -10 10 0 6 5 10 10 10 6
0 10 -4 10 -10z m204 -41 c-3 -5 -10 -9 -15 -9 -6 0 -7 5 -4 10 3 6 1 10 -5
10 -6 0 -8 5 -5 10 5 8 11 7 21 -1 7 -6 11 -15 8 -20z m92 -30 c2 -39 -7 -29
-12 12 -2 18 -1 29 3 25 4 -4 8 -21 9 -37z m-602 -1 c-3 -4 -9 -8 -15 -8 -5 0
-9 4 -9 8 0 5 7 9 15 9 8 0 12 -4 9 -9z m-437 -50 c-3 -8 -6 -5 -6 6 -1 11 2
17 5 13 3 -3 4 -12 1 -19z m1100 -10 c-3 -7 -5 -2 -5 12 0 14 2 19 5 13 2 -7
2 -19 0 -25z m-907 7 c0 -7 -30 -13 -34 -7 -3 4 4 9 15 9 10 1 19 0 19 -2z
m-50 -11 c0 -8 -19 -13 -24 -6 -3 5 1 9 9 9 8 0 15 -2 15 -3z m-36 -35 c-7
-12 10 -11 22 1 7 7 11 6 11 -4 0 -8 -3 -15 -6 -14 -21 2 -31 -4 -25 -14 4 -6
3 -8 -4 -4 -7 4 -10 -2 -9 -15 l1 -21 17 21 c10 12 22 21 27 21 5 0 12 10 15
22 6 21 7 22 27 3 14 -13 17 -21 9 -26 -7 -4 -17 -5 -24 -3 -6 3 -22 -7 -35
-21 -30 -32 -55 -33 -56 0 -1 14 2 25 7 25 5 0 7 11 5 24 -3 18 -1 23 10 19 8
-3 11 -9 8 -14z m113 -12 c1 -11 1 -18 0 -16 -2 2 -8 11 -15 20 -9 12 -9 16 1
16 7 0 14 -9 14 -20z m971 -32 c-3 -3 -9 2 -12 12 -6 14 -5 15 5 6 7 -7 10
-15 7 -18z m986 -26 c-31 -12 -39 -10 -19 5 11 8 24 12 29 8 5 -3 1 -9 -10
-13z m101 -9 c-3 -5 -13 -10 -21 -10 -8 0 -12 5 -9 10 3 6 13 10 21 10 8 0 12
-4 9 -10z m-2291 -40 c10 -13 9 -13 -9 0 -11 8 -22 15 -24 17 -1 1 1 7 5 14 6
10 9 10 12 -1 3 -8 10 -22 16 -30z m2236 30 c0 -5 -2 -10 -4 -10 -3 0 -8 5
-11 10 -3 6 -1 10 4 10 6 0 11 -4 11 -10z m-170 -5 c0 -2 -10 -10 -22 -16 -21
-11 -22 -11 -9 4 13 16 31 23 31 12z m-803 -32 c1 -24 0 -25 -6 -8 -7 17 -6
35 2 35 2 0 3 -12 4 -27z m33 6 c0 -6 -4 -7 -10 -4 -5 3 -10 11 -10 16 0 6 5
7 10 4 6 -3 10 -11 10 -16z m-1633 -51 c-3 -8 -6 -5 -6 6 -1 11 2 17 5 13 3
-3 4 -12 1 -19z m2046 -12 c-10 -11 -22 -24 -27 -27 -4 -4 0 -15 11 -26 19
-19 20 -43 2 -43 -4 0 -6 7 -3 15 4 8 1 15 -4 15 -16 0 -53 -90 -47 -114 3
-12 2 -15 -1 -8 -3 6 -10 10 -15 6 -12 -7 -13 -9 22 90 17 49 29 96 26 105 -3
14 2 16 25 13 28 -4 29 -5 11 -26z m-273 -1 c0 -8 -4 -15 -10 -15 -5 0 -7 7
-4 15 4 8 8 15 10 15 2 0 4 -7 4 -15z m308 -21 c8 -16 8 -21 -1 -21 -7 0 -14
12 -15 25 -2 28 0 27 16 -4z m-2082 -6 c10 -12 14 -18 7 -15 -18 11 -25 -9 -8
-23 12 -10 13 -16 4 -26 -6 -8 -16 -11 -22 -7 -6 4 -8 0 -4 -10 5 -14 3 -15
-12 -5 -22 13 -21 30 2 56 22 24 22 43 0 36 -15 -5 -16 -4 -3 5 8 6 15 11 16
11 0 0 9 -10 20 -22z m1759 -17 c3 -6 -3 -9 -14 -8 -11 0 -17 5 -15 9 7 11 22
10 29 -1z m180 -62 c-8 -19 -13 -26 -11 -17 3 9 8 34 13 55 5 26 8 32 11 17 2
-12 -4 -37 -13 -55z m212 65 c-8 -8 -48 -13 -43 -6 2 4 14 8 26 9 12 1 20 0
17 -3z m-2216 -32 c5 -12 6 -22 2 -22 -3 0 2 -9 11 -19 12 -13 14 -21 6 -26
-6 -4 -9 -12 -7 -19 3 -6 -7 -12 -22 -13 -20 -1 -27 3 -28 18 -1 11 2 17 8 14
5 -4 9 -1 9 4 0 14 -13 14 -26 1 -7 -7 -18 -2 -34 15 -13 14 -18 25 -12 25 7
0 12 -4 12 -9 0 -5 9 -7 20 -4 11 3 17 10 13 15 -3 6 0 8 8 6 8 -3 13 -11 12
-17 -4 -17 14 -13 21 4 3 10 -1 19 -12 23 -22 9 -26 31 -5 28 9 -2 20 -12 24
-24z m2943 3 c-4 -8 -8 -15 -10 -15 -2 0 -4 7 -4 15 0 8 4 15 10 15 5 0 7 -7
4 -15z m-791 -25 c-8 -31 -19 -32 -17 -2 3 35 3 34 13 28 5 -3 7 -15 4 -26z
m-2023 -11 c-6 -11 -4 -16 6 -17 7 -1 21 -3 29 -4 21 -2 9 -15 -12 -13 -24 1
-41 12 -52 33 -7 14 -5 17 14 17 18 0 21 -4 15 -16z m123 14 c3 -5 -1 -14 -8
-20 -11 -10 -13 -9 -12 7 1 20 12 26 20 13z m1937 -3 c0 -5 -7 -10 -16 -10 -8
0 -12 5 -9 10 3 6 10 10 16 10 5 0 9 -4 9 -10z m-2016 -12 c-3 -4 -12 -8 -20
-8 -8 0 -13 4 -10 8 3 5 12 9 20 9 8 0 13 -4 10 -9z m42 -10 c4 -7 3 -8 -4 -4
-7 4 -12 0 -12 -10 0 -10 -3 -15 -6 -11 -7 6 2 37 10 37 3 0 8 -5 12 -12z
m1765 -55 c-12 -20 -14 -14 -5 12 4 9 9 14 11 11 3 -2 0 -13 -6 -23z m-1796 4
c3 -4 2 -5 -2 -2 -4 3 -13 -5 -20 -17 l-14 -23 7 25 c6 22 5 23 -10 11 -15
-13 -24 -2 -10 12 8 8 41 4 49 -6z m1965 -29 c0 -18 -4 -40 -9 -47 -7 -10 -9
0 -8 32 2 53 17 65 17 15z m-56 -13 c4 15 10 25 13 22 3 -4 0 -20 -7 -38 l-13
-31 -13 24 c-7 12 -13 30 -13 38 0 8 6 2 13 -14 l13 -29 7 28z m953 19 c-3 -3
-12 -4 -19 -1 -8 3 -5 6 6 6 11 1 17 -2 13 -5z m-2672 -154 c-3 -5 -12 -10
-18 -10 -7 0 -6 4 3 10 19 12 23 12 15 0z m41 2 c-7 -12 23 -54 34 -47 5 3 11
1 15 -5 11 -17 -15 -11 -46 11 -24 17 -27 24 -18 35 12 15 23 19 15 6z m49
-22 c-3 -5 -12 -10 -18 -10 -7 0 -6 4 3 10 19 12 23 12 15 0z m-65 -24 c0 -3
-4 -8 -10 -11 -5 -3 -10 -1 -10 4 0 6 5 11 10 11 6 0 10 -2 10 -4z m121 -19
c-10 -9 -11 -8 -5 6 3 10 9 15 12 12 3 -3 0 -11 -7 -18z m-108 -61 c4 -10 1
-13 -8 -9 -8 3 -12 9 -9 14 7 12 11 11 17 -5z m2892 -26 c3 -5 -1 -10 -9 -10
-9 0 -16 5 -16 10 0 6 4 10 9 10 6 0 13 -4 16 -10z m-2695 -44 c0 -2 -8 -10
-17 -17 -16 -13 -17 -12 -4 4 13 16 21 21 21 13z m45 -14 c-3 -3 -11 0 -18 7
-9 10 -8 11 6 5 10 -3 15 -9 12 -12z m2719 -7 c-4 -8 -8 -15 -10 -15 -2 0 -4
7 -4 15 0 8 4 15 10 15 5 0 7 -7 4 -15z m113 -124 c23 8 24 8 13 -6 -12 -14
-7 -20 14 -16 12 3 76 -31 76 -40 0 -17 -138 10 -167 34 -18 13 -16 30 2 24 8
-4 18 -1 22 5 5 9 8 9 10 1 3 -9 12 -9 30 -2z m83 -13 c0 -6 -6 -5 -15 2 -8 7
-15 14 -15 16 0 2 7 1 15 -2 8 -4 15 -11 15 -16z m-380 -104 c0 -2 -9 -4 -20
-4 -11 0 -20 4 -20 9 0 5 9 7 20 4 11 -3 20 -7 20 -9z m100 -39 c47 -18 27
-18 -30 -1 -25 8 -36 15 -25 15 11 0 36 -7 55 -14z m-261 -27 c2 -6 7 -5 12 3
8 12 11 12 18 0 6 -9 29 -16 58 -18 28 -1 52 -8 59 -18 6 -8 15 -11 19 -7 5 4
5 1 0 -7 -7 -13 -20 -12 -110 5 -30 5 -67 7 -97 3 -13 -2 -15 -6 -7 -21 6 -10
15 -16 22 -12 9 5 9 4 1 -6 -10 -9 -16 -8 -33 9 -28 28 -27 41 4 41 24 0 24 1
8 20 -12 13 -24 18 -40 14 -24 -6 -33 11 -10 19 18 6 91 -13 96 -25z m-59 -2
c0 -3 -4 -8 -10 -11 -5 -3 -10 -1 -10 4 0 6 5 11 10 11 6 0 10 -2 10 -4z m-55
-18 c5 4 5 2 1 -5 -8 -14 -36 -6 -36 9 0 7 5 6 13 -1 8 -6 18 -7 22 -3z m25
-24 c0 -8 -5 -12 -10 -9 -6 4 -8 11 -5 16 9 14 15 11 15 -7z m110 -28 c0 -6
-5 -5 -12 2 -7 7 -21 12 -32 12 -16 0 -18 2 -7 9 15 10 51 -7 51 -23z"/>
<path d="M1335 3210 c3 -5 8 -10 11 -10 2 0 4 5 4 10 0 6 -5 10 -11 10 -5 0
-7 -4 -4 -10z"/>
<path d="M784 2968 c-4 -7 -3 -8 4 -4 7 4 12 2 12 -4 0 -6 5 -8 10 -5 11 7 4
25 -10 25 -5 0 -12 -5 -16 -12z"/>
<path d="M2050 3430 c0 -5 11 -9 25 -8 14 1 25 6 25 10 0 4 -11 8 -25 8 -14 0
-25 -4 -25 -10z"/>
<path d="M2228 3433 c7 -3 16 -2 19 1 4 3 -2 6 -13 5 -11 0 -14 -3 -6 -6z"/>
<path d="M1731 3416 c-9 -11 -9 -16 1 -22 7 -4 10 -4 6 1 -4 4 -3 14 3 22 6 7
9 13 6 13 -2 0 -10 -6 -16 -14z"/>
<path d="M1946 3415 c-3 -9 0 -15 9 -15 16 0 20 16 6 24 -5 3 -11 -1 -15 -9z"/>
<path d="M2110 3419 c0 -5 5 -7 10 -4 6 3 10 8 10 11 0 2 -4 4 -10 4 -5 0 -10
-5 -10 -11z"/>
<path d="M4987 3419 c7 -7 15 -10 18 -7 3 3 -2 9 -12 12 -14 6 -15 5 -6 -5z"/>
<path d="M1076 3411 c-3 -5 0 -11 7 -14 8 -3 14 1 14 9 0 16 -13 19 -21 5z"/>
<path d="M2310 3410 c-9 -6 -10 -10 -3 -10 6 0 15 5 18 10 8 12 4 12 -15 0z"/>
<path d="M890 3336 c0 -2 8 -10 18 -17 15 -13 16 -12 3 4 -13 16 -21 21 -21
13z"/>
<path d="M1073 3320 c-13 -5 -23 -14 -23 -20 0 -12 13 -13 24 -2 4 4 13 7 19
7 5 0 12 6 15 13 4 14 -4 14 -35 2z"/>
<path d="M870 3310 c0 -5 5 -10 10 -10 6 0 10 5 10 10 0 6 -4 10 -10 10 -5 0
-10 -4 -10 -10z"/>
<path d="M2362 3290 c0 -14 2 -19 5 -12 2 6 2 18 0 25 -3 6 -5 1 -5 -13z"/>
<path d="M5090 3296 c0 -2 7 -7 16 -10 8 -3 12 -2 9 4 -6 10 -25 14 -25 6z"/>
<path d="M825 3250 c-3 -6 1 -7 9 -4 18 7 21 14 7 14 -6 0 -13 -4 -16 -10z"/>
<path d="M3170 3250 c0 -5 5 -10 11 -10 5 0 7 5 4 10 -3 6 -8 10 -11 10 -2 0
-4 -4 -4 -10z"/>
<path d="M2406 3223 c-4 -9 -2 -21 4 -27 7 -7 10 -2 10 17 0 31 -5 34 -14 10z"/>
<path d="M3440 3200 c0 -5 5 -10 11 -10 5 0 7 5 4 10 -3 6 -8 10 -11 10 -2 0
-4 -4 -4 -10z"/>
<path d="M785 3180 c3 -5 8 -10 11 -10 2 0 4 5 4 10 0 6 -5 10 -11 10 -5 0 -7
-4 -4 -10z"/>
<path d="M765 3161 c-7 -12 29 -33 39 -24 13 13 5 21 -16 15 -14 -3 -19 -2
-14 6 4 7 5 12 2 12 -3 0 -7 -4 -11 -9z"/>
<path d="M2673 3145 c-3 -9 -3 -18 -1 -21 3 -3 8 4 11 16 6 23 -1 27 -10 5z"/>
<path d="M2705 3127 c3 -17 1 -36 -7 -45 -10 -12 -10 -14 0 -8 7 4 12 2 12 -5
0 -10 3 -10 11 -2 9 9 7 21 -5 50 -13 30 -16 32 -11 10z"/>
<path d="M2543 3123 c1 -20 3 -21 17 -8 9 8 20 12 25 8 4 -5 5 -2 1 5 -6 10
-11 10 -21 2 -10 -8 -14 -7 -18 2 -3 7 -4 3 -4 -9z"/>
<path d="M2500 3126 c0 -2 8 -10 18 -17 15 -13 16 -12 3 4 -13 16 -21 21 -21
13z"/>
<path d="M2960 3044 c0 -8 5 -12 10 -9 6 4 8 11 5 16 -9 14 -15 11 -15 -7z"/>
<path d="M596 2862 c-2 -4 -1 -14 4 -22 7 -11 9 -9 7 8 -1 24 -3 26 -11 14z"/>
<path d="M4265 2800 c3 -5 8 -10 11 -10 2 0 4 5 4 10 0 6 -5 10 -11 10 -5 0
-7 -4 -4 -10z"/>
<path d="M795 2719 c-4 -6 -5 -12 -2 -15 2 -3 7 2 10 11 7 17 1 20 -8 4z"/>
<path d="M810 2690 c0 -5 -7 -7 -17 -3 -13 5 -15 2 -11 -15 4 -13 0 -23 -8
-26 -8 -3 -14 -11 -14 -18 0 -8 3 -9 8 -3 13 19 30 15 25 -5 -4 -14 0 -20 11
-20 10 0 13 -6 10 -15 -4 -8 -1 -15 5 -15 6 0 11 11 11 25 0 20 4 24 25 23 14
-1 25 -6 25 -11 0 -5 -8 -6 -18 -3 -12 4 -19 1 -19 -8 0 -9 4 -13 9 -10 4 3 8
-3 9 -13 0 -10 3 -13 6 -5 2 6 11 12 18 12 7 0 16 -6 18 -12 4 -10 6 -10 6 0
1 6 6 12 12 12 5 0 7 -5 3 -12 -5 -7 -3 -8 7 -2 8 5 22 7 33 5 11 -1 16 2 11
8 -3 6 -11 8 -17 5 -7 -4 -8 -2 -4 4 11 18 37 2 31 -19 -4 -11 -3 -19 2 -20 4
0 18 -2 31 -3 12 -2 28 4 34 13 10 13 10 14 -2 4 -9 -9 -18 -9 -33 -1 -14 7
-16 12 -8 18 8 5 3 13 -16 25 -15 10 -35 26 -43 36 -37 41 -140 78 -140 49z
m130 -94 c0 -2 -9 -6 -20 -9 -11 -3 -18 -1 -14 4 5 9 34 13 34 5z"/>
<path d="M1075 2590 c3 -5 8 -10 11 -10 2 0 4 5 4 10 0 6 -5 10 -11 10 -5 0
-7 -4 -4 -10z"/>
<path d="M2603 2565 c0 -22 2 -30 4 -17 2 12 2 30 0 40 -3 9 -5 -1 -4 -23z"/>
<path d="M749 2571 c8 -5 21 -7 29 -3 10 3 13 1 8 -6 -4 -7 -4 -12 1 -13 4 0
21 -3 38 -5 16 -3 27 -2 23 1 -3 4 -8 5 -11 3 -2 -1 -11 3 -21 11 -9 7 -31 15
-49 17 -22 3 -27 1 -18 -5z"/>
<path d="M866 2537 c3 -10 9 -15 12 -12 3 3 0 11 -7 18 -10 9 -11 8 -5 -6z"/>
<path d="M1036 2519 c-24 -24 -10 -25 16 -2 17 15 20 15 28 3 6 -8 10 -11 10
-6 0 5 6 5 13 0 7 -5 4 -1 -6 9 -24 22 -37 21 -61 -4z"/>
<path d="M1063 2485 c0 -11 4 -12 14 -4 7 6 13 13 13 15 0 2 -6 4 -13 4 -8 0
-14 -7 -14 -15z"/>
<path d="M4144 2453 c4 -4 19 -9 34 -11 35 -4 25 5 -12 12 -16 3 -25 2 -22 -1z"/>
<path d="M1185 2410 c4 -6 11 -8 16 -5 14 9 11 15 -7 15 -8 0 -12 -5 -9 -10z"/>
<path d="M2293 2337 c-32 -16 -66 -36 -77 -46 -10 -9 -28 -15 -40 -14 -11 1
-15 0 -8 -3 17 -8 15 -24 -2 -24 -8 0 -16 -8 -18 -17 -2 -13 -14 -19 -43 -20
-101 -6 -105 -8 -82 -32 10 -11 9 -12 -1 -7 -7 4 -19 2 -27 -4 -8 -7 -15 -9
-16 -4 0 5 -4 0 -8 -11 -7 -16 -9 -13 -15 19 -5 28 -10 36 -16 26 -5 -9 -4
-20 3 -29 9 -11 9 -13 0 -8 -8 5 -11 0 -10 -13 1 -11 8 -20 18 -20 9 0 21 -6
27 -13 9 -10 3 -14 -29 -16 -22 -1 -51 -6 -64 -11 -14 -5 -25 -7 -25 -4 0 4
-7 1 -15 -6 -8 -6 -19 -9 -25 -5 -16 10 -81 -15 -74 -28 3 -7 -1 -4 -9 6 -8 9
-20 17 -28 17 -11 0 -11 -2 1 -10 12 -8 12 -10 -3 -16 -9 -3 -14 -11 -10 -18
4 -7 1 -6 -9 2 -17 13 -52 6 -42 -9 3 -5 -2 -12 -11 -16 -10 -3 -21 0 -26 8
-6 10 -9 10 -9 2 0 -7 -9 -13 -20 -13 -11 0 -20 -5 -20 -10 0 -6 -3 -9 -7 -9
-21 3 -44 -2 -39 -9 3 -5 -4 -16 -14 -25 -13 -11 -20 -12 -24 -4 -3 9 -5 9 -5
0 -1 -7 -8 -10 -18 -6 -12 5 -14 3 -8 -7 6 -10 4 -12 -9 -7 -12 5 -28 -3 -52
-28 -33 -34 -52 -46 -38 -23 4 6 3 8 -4 4 -6 -3 -9 -19 -6 -34 4 -24 3 -25 -9
-10 -13 16 -15 16 -26 -8 -6 -14 -9 -29 -7 -33 3 -4 0 -13 -5 -21 -8 -11 -9
-6 -6 18 4 39 0 41 -14 5 -18 -46 -19 -63 -3 -63 8 0 14 -6 14 -12 0 -7 11 -1
24 15 24 28 42 37 31 15 -4 -7 2 -3 12 10 18 22 19 22 19 2 0 -11 -8 -23 -18
-26 -10 -3 -16 -9 -13 -14 3 -5 1 -11 -5 -15 -6 -4 -8 -10 -5 -15 3 -5 -2 -13
-11 -18 -9 -5 -15 -12 -15 -15 4 -27 -1 -57 -8 -57 -5 0 -7 21 -6 48 2 26 1
41 -1 34 -3 -6 -9 -10 -12 -8 -4 2 -8 -16 -8 -40 -1 -25 -8 -52 -18 -62 -8
-10 -18 -29 -20 -43 -2 -13 -5 -26 -6 -29 -2 -3 -2 -8 -1 -12 0 -5 -2 -8 -7
-8 -12 1 -112 37 -118 43 -8 8 -54 -14 -54 -25 0 -5 -5 -6 -11 -3 -6 5 -4 12
8 21 15 12 11 12 -21 -1 -21 -8 -42 -12 -47 -9 -5 3 -6 -2 -3 -10 3 -9 14 -16
23 -16 13 0 13 -2 2 -9 -11 -7 -11 -10 0 -15 8 -3 4 -4 -8 -2 -13 2 -26 -1
-30 -6 -3 -7 -1 -8 5 -4 7 4 12 2 12 -4 0 -6 4 -9 9 -6 11 7 5 -65 -6 -73 -10
-8 -13 -42 -3 -36 4 3 10 -2 14 -10 3 -8 2 -14 -2 -14 -20 3 -30 -3 -35 -20
-3 -14 -1 -18 9 -14 8 3 11 9 8 14 -3 5 3 9 12 9 15 0 14 -3 -5 -24 -15 -16
-19 -26 -12 -31 6 -3 9 -11 6 -16 -7 -10 8 -12 18 -2 4 3 -1 12 -11 20 -15 13
-15 13 5 3 29 -14 29 -30 2 -37 -21 -6 -21 -7 -4 -20 19 -13 31 -48 14 -37 -5
3 -6 11 -2 17 4 7 0 6 -10 -2 -18 -14 -24 -26 -8 -17 5 3 11 -4 15 -17 9 -36
7 -42 -9 -21 -14 18 -14 18 -8 -3 3 -15 1 -23 -7 -23 -9 0 -10 -3 -1 -13 6 -8
7 -18 3 -23 -4 -5 2 -2 13 7 36 29 43 30 38 8 -3 -12 -9 -16 -12 -10 -5 7 -12
4 -22 -7 -26 -30 -30 -40 -19 -47 6 -4 9 -1 8 7 -2 7 3 12 10 10 8 -1 11 2 8
7 -4 5 -2 12 3 15 5 4 12 2 16 -4 8 -13 25 -13 25 1 0 5 -4 7 -10 4 -6 -3 -7
1 -4 10 6 14 8 14 19 -2 7 -10 11 -21 9 -25 -3 -5 0 -8 6 -8 6 0 8 -5 4 -11
-3 -6 0 -16 7 -21 10 -7 8 -8 -7 -3 -13 3 -26 -1 -35 -11 -13 -16 -12 -16 6
-7 32 17 48 5 25 -19 -11 -12 -17 -25 -14 -30 3 -4 0 -8 -6 -8 -7 0 -10 -6 -7
-14 3 -7 2 -30 -3 -49 -7 -34 -7 -35 16 -27 15 6 26 5 30 -2 4 -6 3 -8 -3 -5
-6 4 -15 -5 -22 -20 -11 -23 -10 -25 3 -13 9 7 16 9 16 5 0 -4 7 -2 15 5 8 7
15 9 15 5 0 -4 -8 -14 -17 -22 -10 -8 -12 -11 -4 -7 11 5 13 3 8 -9 -10 -27 1
-20 17 11 14 25 15 25 16 5 0 -12 4 -24 9 -27 11 -7 2 -48 -13 -58 -8 -6 -8
-8 1 -8 6 0 9 -9 6 -20 -3 -11 -9 -20 -14 -20 -5 0 -6 -7 -2 -16 3 -8 12 -13
20 -10 9 4 13 1 10 -6 -2 -7 -14 -12 -27 -10 l-22 2 23 -20 c15 -11 19 -19 10
-20 -7 0 -11 -6 -7 -15 3 -9 0 -15 -10 -15 -8 0 -20 -12 -26 -26 -10 -22 -10
-28 6 -40 17 -12 17 -13 -3 -11 -11 1 -21 5 -21 10 0 4 -5 5 -10 2 -6 -4 -8
-11 -5 -16 4 -5 2 -9 -3 -9 -6 0 -10 -6 -9 -12 1 -42 -3 -51 -18 -38 -9 7 -18
10 -22 6 -3 -3 -2 -6 4 -6 5 0 9 -13 9 -30 0 -16 -2 -28 -4 -25 -3 3 -11 0
-17 -5 -8 -7 -18 -3 -31 11 -19 22 -19 22 2 11 15 -8 24 -8 32 0 15 15 4 36
-16 33 -9 -1 -11 0 -4 2 6 3 12 9 12 14 0 5 9 9 20 9 11 0 20 5 20 11 0 6 -7
8 -16 5 -14 -5 -15 -4 -4 9 14 17 6 50 -11 40 -6 -4 -5 2 2 14 9 14 16 17 20
9 4 -7 6 -15 3 -19 -2 -4 1 -11 7 -15 7 -4 9 -3 5 4 -3 6 -2 14 4 17 8 5 8 11
1 19 -6 7 -7 17 -3 21 4 5 1 5 -5 1 -8 -4 -13 -2 -13 6 -1 7 -8 0 -17 -16 -15
-28 -16 -29 -29 -11 -7 10 -12 21 -10 24 3 6 -30 41 -39 41 -3 0 -5 3 -5 7 0
13 64 7 68 -7 3 -9 -1 -11 -13 -6 -15 5 -16 4 -5 -9 19 -23 30 -18 43 18 16
46 15 61 -8 66 -17 3 -18 1 -6 -13 10 -12 11 -20 4 -27 -8 -8 -11 -6 -10 7 1
11 -5 19 -13 19 -8 0 -21 4 -29 9 -9 6 -12 5 -7 -2 3 -6 -3 -13 -14 -17 -11
-4 -17 -11 -14 -17 5 -8 1 -9 -10 -5 -14 6 -15 3 -6 -13 11 -20 -3 -30 -14
-11 -3 5 -15 7 -26 4 -15 -4 -18 -9 -10 -18 8 -9 20 -11 39 -5 38 10 54 -2 57
-41 2 -22 0 -29 -6 -19 -5 8 -7 17 -4 21 2 4 0 10 -6 14 -5 3 -11 1 -11 -4 -3
-26 -7 -52 -8 -58 0 -4 -6 -2 -13 5 -7 7 -19 12 -28 11 -9 0 -6 -4 8 -9 20 -9
32 -31 15 -29 -16 2 -53 -14 -53 -23 0 -5 10 -3 23 4 29 16 46 18 53 7 3 -5 0
-9 -6 -9 -6 0 -8 -5 -5 -10 5 -8 11 -7 21 1 12 10 13 9 8 -5 -3 -9 -10 -16
-16 -16 -5 0 -6 -5 -3 -11 4 -6 -2 -5 -13 2 -12 7 -18 17 -16 21 3 4 1 8 -5 8
-6 0 -8 -18 -4 -46 4 -37 2 -48 -13 -59 -15 -10 -22 -11 -34 -2 -13 10 -13 10
-1 -5 10 -13 18 -15 31 -8 13 7 20 6 24 -6 9 -24 7 -28 -8 -15 -10 8 -16 9
-21 1 -3 -6 -10 -8 -14 -6 -16 10 -66 -42 -66 -70 0 -15 -6 -29 -14 -32 -8 -3
-11 0 -7 7 5 7 1 9 -10 4 -14 -5 -12 -9 11 -21 22 -11 25 -16 14 -24 -11 -8
-11 -9 2 -5 9 3 22 1 30 -4 11 -7 10 -9 -5 -9 -18 0 -18 -1 -2 -19 9 -10 27
-17 41 -15 14 1 23 -2 19 -7 -3 -5 -16 -9 -29 -9 -33 0 -56 -10 -49 -22 4 -6
10 -5 16 3 6 10 7 7 3 -8 l-6 -23 1095 0 c866 0 1096 3 1096 13 0 8 4 7 10 -3
9 -13 10 -13 10 0 0 13 1 13 10 0 5 -8 10 -10 10 -4 0 14 -25 36 -33 29 -4 -3
-5 -2 -2 2 3 3 -1 13 -8 22 -10 14 -10 14 4 4 9 -7 20 -9 24 -5 5 4 5 1 1 -5
-4 -7 -3 -13 2 -13 5 0 12 9 15 19 3 15 -1 21 -17 24 -20 4 -20 4 2 6 12 0 22
2 22 4 0 1 -4 16 -9 34 -8 27 -6 32 10 36 10 3 19 10 19 17 0 6 -5 8 -12 4 -8
-5 -9 -2 -5 10 5 12 2 16 -11 14 -9 -2 -20 -7 -24 -13 -5 -6 -8 -6 -8 1 0 6 7
17 15 24 8 7 13 16 10 20 -3 5 -1 11 4 15 6 3 8 -3 6 -15 -2 -11 0 -20 6 -20
5 0 9 5 9 11 0 6 8 8 19 4 11 -3 22 -1 25 4 4 6 14 7 22 4 9 -3 20 0 25 8 11
17 12 39 1 24 -4 -5 -14 -11 -22 -13 -12 -2 -11 1 2 11 10 8 14 18 10 23 -4 5
4 0 17 -11 14 -11 21 -15 18 -9 -4 7 -1 14 7 17 7 3 16 15 19 26 3 12 1 19 -4
15 -5 -3 -9 -12 -9 -20 0 -25 -35 -12 -36 13 -1 13 2 20 7 17 4 -2 6 -11 2
-19 -3 -8 -1 -15 5 -15 12 0 24 29 16 41 -7 12 2 11 29 -2 20 -9 20 -9 5 4
-16 13 -16 15 3 33 19 20 19 20 -3 21 -15 2 -18 -1 -10 -6 10 -6 10 -11 -3
-21 -13 -10 -18 -11 -28 -1 -9 10 -9 12 3 9 13 -3 16 2 19 38 1 13 4 14 16 4
18 -15 36 -4 28 18 -7 18 -5 17 17 -12 8 -11 10 -17 5 -14 -7 4 -11 -3 -11
-17 0 -13 4 -21 8 -19 5 3 6 9 3 14 -3 5 0 12 6 15 5 4 8 14 4 23 -3 9 -3 13
1 10 3 -4 13 -1 20 7 15 14 19 29 7 22 -5 -3 -13 1 -20 8 -10 10 -9 14 3 19 9
3 12 1 9 -4 -3 -6 4 -10 16 -10 26 0 24 3 -16 24 l-30 16 29 0 29 0 -21 19
c-34 29 -25 36 20 17 10 -5 23 -6 30 -3 7 3 3 6 -8 6 -12 1 -24 8 -28 16 -3 8
-12 15 -21 15 -8 0 -24 9 -34 19 -16 16 -17 20 -5 25 8 3 13 2 10 -2 -2 -4 5
-9 17 -9 15 -2 18 0 9 6 -8 5 -13 11 -13 15 3 23 0 30 -8 17 -8 -13 -12 -13
-28 0 -16 13 -17 13 -4 -3 11 -15 11 -18 0 -19 -8 0 -22 -2 -31 -4 -10 -2 -18
0 -18 5 0 4 -10 6 -22 5 -13 -1 -31 -3 -42 -4 -10 0 -16 -6 -13 -13 3 -8 -5
-14 -22 -14 -38 -2 -76 -10 -89 -18 -7 -4 -12 -1 -12 9 0 11 5 15 14 12 10 -4
12 0 8 16 -5 20 -4 21 13 7 17 -14 18 -13 13 8 -5 17 -2 22 12 22 11 0 21 4
25 9 3 5 20 9 38 9 17 0 35 1 40 2 4 1 10 3 15 4 4 1 24 11 45 21 27 13 34 21
25 28 -8 5 5 7 34 3 33 -4 49 -1 58 9 10 12 9 16 -4 21 -9 3 -16 11 -16 16 0
6 7 8 15 4 10 -3 15 1 15 12 0 24 19 42 37 35 12 -5 12 -7 1 -15 -9 -7 -7 -8
8 -5 22 5 26 -6 10 -32 -6 -9 -5 -12 2 -7 6 3 20 -6 31 -20 19 -24 26 -24 22
-1 -1 5 3 6 9 2 6 -3 8 -10 5 -15 -3 -4 5 -6 17 -3 17 4 20 3 13 -5 -6 -6 -20
-13 -32 -15 -13 -2 -26 -7 -30 -12 -5 -4 -3 -5 3 -2 13 8 27 -20 18 -34 -3 -5
0 -9 5 -9 6 0 11 7 11 15 0 8 6 15 13 15 8 0 7 4 -3 10 -13 8 -12 10 3 10 10
0 20 7 23 15 4 8 11 12 18 8 7 -4 8 -3 1 5 -5 5 -19 12 -29 14 -19 3 -32 38
-15 38 6 0 7 5 3 11 -4 8 -12 3 -20 -12 -9 -17 -13 -19 -14 -8 0 9 7 22 15 29
12 10 12 15 0 34 -13 19 -13 23 -1 23 8 0 12 -6 8 -15 -3 -10 0 -13 9 -10 8 3
23 1 34 -4 20 -9 20 -9 1 6 -11 9 -16 16 -10 16 5 0 2 4 -6 10 -28 18 -2 20
29 3 39 -22 49 -11 46 52 -2 26 2 43 7 42 6 -1 13 5 15 13 3 11 2 12 -4 3 -7
-10 -13 -8 -26 7 -17 20 -13 48 7 62 7 5 7 8 -2 8 -7 0 -11 4 -7 9 3 5 0 13
-6 17 -7 4 -9 3 -6 -3 4 -6 0 -13 -8 -16 -10 -4 -12 -1 -8 10 4 11 2 14 -8 11
-8 -3 -14 -16 -15 -29 -2 -43 -4 -49 -16 -49 -9 0 -9 3 -1 11 14 14 6 39 -13
39 -8 0 -14 -10 -14 -25 0 -14 -7 -28 -15 -31 -8 -4 -15 -13 -15 -21 0 -8 -4
-11 -10 -8 -5 3 -10 1 -10 -5 0 -6 8 -9 18 -6 9 3 24 1 32 -4 11 -7 11 -10 2
-10 -7 0 -11 -4 -8 -9 4 -5 -3 -7 -13 -4 -20 5 -47 -28 -34 -41 11 -10 -4 -7
-62 15 -30 11 -55 25 -55 30 0 6 4 8 9 4 5 -3 12 -1 16 4 3 6 -5 8 -20 5 -14
-2 -25 0 -25 6 0 5 -7 10 -16 10 -15 0 -44 23 -44 35 0 3 8 1 19 -4 10 -6 21
-8 23 -5 3 2 23 5 44 6 21 0 48 8 58 17 18 15 18 15 7 -6 -10 -19 -9 -22 4
-17 8 4 15 12 15 20 0 8 8 14 18 14 10 0 21 2 24 5 11 11 -17 74 -35 79 -11 2
-16 9 -12 15 3 6 1 11 -5 11 -6 0 -9 4 -6 9 4 5 0 12 -6 14 -10 4 -9 6 1 6 11
1 11 4 1 16 -14 17 -3 18 158 17 51 0 92 3 92 9 0 8 -22 13 -42 10 -5 0 -8 8
-8 19 0 11 5 20 10 20 6 0 10 6 9 13 -4 35 1 40 24 20 32 -29 43 -34 61 -27
12 5 13 11 5 32 -6 15 -10 28 -10 30 4 13 -1 14 -9 2 -5 -8 -10 -10 -10 -5 0
6 7 20 15 33 15 20 14 21 0 16 -10 -4 -28 4 -47 22 -17 16 -28 23 -24 17 10
-19 -2 -16 -24 5 -10 9 -21 31 -24 47 -13 74 -37 129 -73 168 -21 23 -43 44
-48 47 -4 3 -23 19 -41 35 -57 52 -59 53 -73 38 -7 -8 -16 -12 -19 -8 -4 3 0
10 7 14 11 7 9 11 -7 20 -27 14 -39 14 -24 -1 7 -7 12 -20 12 -30 0 -20 -6
-16 -89 59 -25 23 -37 29 -39 19 -4 -17 -39 -10 -66 13 -11 9 -16 10 -12 4 5
-9 2 -11 -8 -7 -9 3 -16 10 -16 15 0 5 -8 9 -17 9 -9 0 -25 7 -35 17 -10 9
-18 12 -18 7 0 -15 111 -110 123 -106 6 2 4 -5 -4 -14 -11 -14 -11 -16 -1 -10
10 6 13 3 10 -9 -4 -22 -28 -32 -28 -12 0 16 -18 34 -39 39 -20 4 -67 50 -75
71 -3 11 -15 21 -26 24 -20 5 -28 23 -11 23 5 0 11 10 13 21 2 12 11 27 21 33
15 9 22 7 37 -12 26 -32 100 -55 117 -37 9 10 6 14 -15 18 -64 13 -87 21 -99
33 -17 16 -17 37 0 28 7 -4 9 -3 4 2 -5 5 -14 9 -20 9 -7 0 -13 8 -15 18 -2
12 3 17 17 17 22 0 29 16 9 22 -6 2 -12 11 -13 19 -6 41 -49 117 -79 139 -19
14 -32 28 -30 31 2 3 -10 19 -27 35 l-30 29 26 -47 c34 -62 27 -86 -7 -26 -29
48 -55 74 -65 65 -3 -4 -1 -13 6 -21 7 -8 16 -28 21 -46 8 -26 7 -30 -4 -20
-11 8 -15 8 -18 -1 -2 -7 -4 4 -5 24 -1 19 -11 48 -22 64 -21 27 -27 29 -97
31 -42 1 -84 7 -95 12 -14 8 -19 7 -19 -2 0 -9 -3 -9 -10 2 -5 8 -10 10 -10 3
0 -6 -9 -9 -20 -6 -11 3 -17 9 -15 14 14 21 -98 4 -152 -24z m217 -67 c-18
-11 -22 -7 -14 14 5 13 10 14 18 6 8 -8 7 -13 -4 -20z m-53 -2 c-3 -8 -6 -5
-6 6 -1 11 2 17 5 13 3 -3 4 -12 1 -19z m210 0 c-3 -8 -6 -5 -6 6 -1 11 2 17
5 13 3 -3 4 -12 1 -19z m20 -30 c-3 -7 -5 -2 -5 12 0 14 2 19 5 13 2 -7 2 -19
0 -25z m-587 -53 c0 -17 -42 -17 -57 -1 -4 5 4 6 20 2 16 -4 27 -2 27 4 0 5 2
10 5 10 3 0 5 -7 5 -15z m-95 -139 c7 3 16 1 20 -5 7 -12 -8 -14 -42 -5 -13 4
-20 11 -17 16 4 6 10 6 16 0 6 -6 16 -8 23 -6z m-141 -11 c-7 -17 -20 -20 -28
-6 -7 10 3 21 20 21 8 0 11 -6 8 -15z m69 8 c-7 -2 -19 -2 -25 0 -7 3 -2 5 12
5 14 0 19 -2 13 -5z m61 -85 c-3 -4 -11 -5 -19 -1 -21 7 -19 12 4 10 11 0 18
-5 15 -9z m924 -103 c-3 -3 -9 2 -12 12 -6 14 -5 15 5 6 7 -7 10 -15 7 -18z
m22 -49 c25 -35 49 -83 44 -90 -2 -3 -1 -4 3 -1 7 6 83 -104 83 -120 0 -6 9
-28 21 -49 11 -21 18 -40 16 -42 -4 -4 -57 52 -57 61 0 3 -16 27 -35 54 -26
36 -49 54 -88 71 -63 27 -87 47 -80 67 5 12 7 12 14 1 6 -10 9 -8 9 7 0 17 2
17 10 5 8 -12 10 -11 10 8 0 12 5 22 11 22 6 0 9 9 6 20 -6 24 10 17 33 -14z
m337 -72 c1 -24 0 -25 -15 -10 -15 15 -15 18 -2 26 8 5 15 10 15 10 0 0 1 -12
2 -26z m-347 -58 c0 -3 -4 -8 -10 -11 -5 -3 -10 -1 -10 4 0 6 5 11 10 11 6 0
10 -2 10 -4z m-130 -41 c0 -5 -5 -3 -10 5 -5 8 -10 20 -10 25 0 6 5 3 10 -5 5
-8 10 -19 10 -25z m590 -70 c0 -5 -9 1 -20 15 -11 14 -20 30 -20 35 0 6 9 -1
20 -15 11 -14 20 -29 20 -35z m-2037 30 c-3 -9 -8 -14 -10 -11 -3 3 -2 9 2 15
9 16 15 13 8 -4z m1487 -45 c9 -27 15 -50 13 -50 -6 0 -43 84 -43 99 0 24 12
4 30 -49z m-1553 3 c-3 -10 -5 -4 -5 12 0 17 2 24 5 18 2 -7 2 -21 0 -30z
m1648 5 c17 -29 17 -31 1 -19 -21 17 -40 51 -29 51 5 0 17 -15 28 -32z m-1672
-13 c-8 -22 -22 -18 -16 5 3 11 9 17 14 15 4 -3 6 -12 2 -20z m1124 -27 c-3
-8 -6 -5 -6 6 -1 11 2 17 5 13 3 -3 4 -12 1 -19z m-1122 -81 c-21 -11 -25 -11
-25 1 0 4 6 7 13 7 6 1 11 7 9 15 -3 12 -1 13 10 2 11 -11 10 -15 -7 -25z
m-89 -7 c0 -12 -4 -16 -9 -11 -5 5 -6 14 -3 20 10 15 12 14 12 -9z m136 -8
c-7 -2 -12 -11 -12 -20 0 -14 -2 -14 -9 -3 -13 20 -2 41 17 34 10 -4 12 -8 4
-11z m2208 -7 c0 -8 -2 -15 -4 -15 -2 0 -6 7 -10 15 -3 8 -1 15 4 15 6 0 10
-7 10 -15z m37 -11 c-3 -3 -12 -4 -19 -1 -8 3 -5 6 6 6 11 1 17 -2 13 -5z
m-2332 -44 c3 -19 3 -32 0 -28 -4 3 -9 21 -12 40 -6 43 4 33 12 -12z m2295 20
c0 -5 -5 -10 -11 -10 -5 0 -7 5 -4 10 3 6 8 10 11 10 2 0 4 -4 4 -10z m-2250
-30 c-13 -25 5 -36 22 -13 7 10 19 19 27 21 12 3 12 1 0 -14 -12 -16 -12 -17
4 -11 9 3 17 2 17 -3 0 -6 6 -10 14 -10 8 0 18 -4 21 -10 4 -7 -3 -7 -19 0
-17 6 -26 6 -26 0 0 -6 7 -10 16 -10 9 0 14 -6 11 -13 -10 -26 8 -40 33 -27
13 7 20 8 16 1 -8 -12 28 -33 39 -23 5 4 5 1 1 -6 -6 -11 -12 -10 -32 2 -28
19 -30 19 -32 4 0 -7 -4 -23 -7 -35 -6 -19 -3 -23 13 -23 12 0 24 -4 27 -10
11 -18 27 -11 22 10 -3 11 -1 18 4 14 5 -3 9 1 10 8 0 9 2 9 6 -2 10 -25 32
-42 45 -34 7 4 6 0 -2 -8 -8 -8 -27 -19 -42 -26 -22 -9 -30 -8 -47 7 -11 10
-17 21 -14 25 4 4 0 4 -9 1 -13 -5 -19 0 -24 19 -3 13 -3 29 0 35 4 5 1 13 -5
17 -8 5 -9 3 -5 -5 5 -8 3 -12 -5 -10 -28 3 -39 -1 -39 -18 0 -15 -2 -14 -14
2 -13 19 -15 19 -33 3 -17 -16 -18 -15 -17 19 1 19 -2 48 -6 63 -7 23 -5 28 6
23 8 -3 14 0 14 6 0 6 -4 11 -9 11 -5 0 -4 11 2 24 7 13 15 22 19 20 5 -3 4
-14 -2 -24z m-260 10 c0 -5 -5 -10 -11 -10 -5 0 -7 5 -4 10 3 6 8 10 11 10 2
0 4 -4 4 -10z m2445 1 c3 -5 1 -12 -5 -16 -5 -3 -10 1 -10 9 0 18 6 21 15 7z
m105 -15 c0 -2 -7 -6 -15 -10 -8 -3 -15 -1 -15 4 0 6 7 10 15 10 8 0 15 -2 15
-4z m-2350 -15 c0 -6 -4 -12 -8 -15 -5 -3 -9 1 -9 9 0 8 4 15 9 15 4 0 8 -4 8
-9z m2245 -19 c-3 -3 -11 0 -18 7 -9 10 -8 11 6 5 10 -3 15 -9 12 -12z m51
-22 c8 0 14 -5 14 -11 0 -5 -5 -7 -11 -3 -8 4 -9 -1 -4 -16 6 -20 5 -21 -8 -9
-8 8 -13 17 -11 20 2 3 -8 4 -21 1 -20 -3 -24 -1 -19 11 3 9 12 13 20 10 9 -3
14 2 15 13 1 17 2 17 6 2 2 -10 11 -18 19 -18z m121 3 c-3 -3 -11 -2 -17 2 -9
6 -9 10 1 16 14 8 27 -7 16 -18z m-2277 -94 c0 -6 -4 -7 -10 -4 -5 3 -10 11
-10 16 0 6 5 7 10 4 6 -3 10 -11 10 -16z m2000 -89 c0 -5 -8 -10 -17 -10 -15
0 -16 2 -3 10 19 12 20 12 20 0z m-2299 -23 c-10 -9 -11 -8 -5 6 3 10 9 15 12
12 3 -3 0 -11 -7 -18z m2319 4 c0 -13 -32 -19 -55 -11 -17 7 -16 8 10 12 17 3
33 6 38 7 4 0 7 -3 7 -8z m-2299 -20 c-9 -6 -11 -16 -7 -27 6 -15 4 -16 -5 -7
-14 14 -5 43 13 43 10 0 9 -3 -1 -9z m382 -5 c-4 -5 3 -7 14 -4 12 3 20 0 20
-8 0 -7 -4 -11 -9 -8 -4 3 -8 -1 -8 -8 0 -15 88 -75 102 -70 5 1 4 -7 -2 -18
-6 -12 -7 -20 -1 -20 10 0 27 -39 23 -52 -1 -5 3 -8 9 -8 6 0 9 -9 6 -19 -3
-12 1 -22 11 -26 13 -5 14 -8 3 -14 -10 -6 -5 -13 18 -27 20 -12 31 -26 31
-41 0 -13 -4 -23 -9 -23 -5 0 -7 10 -4 23 3 16 2 18 -5 8 -16 -22 -70 16 -81
56 -11 39 -44 88 -86 128 -18 17 -37 40 -44 53 -9 18 -16 20 -31 12 -20 -11
-53 -3 -45 10 3 4 -2 10 -10 14 -8 3 -15 12 -15 20 0 9 6 13 13 10 7 -2 25 1
39 8 29 16 69 18 61 4z m2027 -55 c0 -5 -6 -11 -13 -14 -8 -3 -14 1 -14 9 0 8
6 14 14 14 7 0 13 -4 13 -9z m-15 -81 c-3 -5 -12 -10 -18 -10 -7 0 -6 4 3 10
19 12 23 12 15 0z m-231 -9 c8 -12 -27 -20 -61 -13 l-28 6 30 7 c44 10 53 10
59 0z m176 -6 c0 -8 -2 -15 -4 -15 -2 0 -6 7 -10 15 -3 8 -1 15 4 15 6 0 10
-7 10 -15z m-153 -17 c-3 -8 -6 -5 -6 6 -1 11 2 17 5 13 3 -3 4 -12 1 -19z
m-77 -18 c8 -5 11 -10 5 -10 -5 0 -17 5 -25 10 -8 5 -10 10 -5 10 6 0 17 -5
25 -10z m130 -5 c0 -12 -19 -12 -23 0 -4 9 -1 12 9 8 7 -3 14 -7 14 -8z m61 0
c5 4 6 -2 2 -11 -4 -11 -8 -13 -11 -6 -2 7 -11 12 -20 12 -15 0 -15 2 -2 10
10 6 16 6 18 0 2 -6 8 -8 13 -5z m39 -16 c0 -5 -4 -9 -8 -9 -5 0 -9 7 -9 15 0
8 4 12 9 9 4 -3 8 -9 8 -15z m-160 1 c24 -15 7 -19 -20 -5 -15 8 -19 14 -10
14 8 1 22 -3 30 -9z m-2193 -15 c0 -8 -4 -12 -9 -9 -5 3 -6 10 -3 15 9 13 12
11 12 -6z m623 -43 c-7 -3 -19 3 -28 13 -16 15 -15 16 12 4 15 -7 23 -15 16
-17z m-523 -32 c-2 -11 -6 -22 -9 -26 -4 -3 -5 2 -3 13 2 10 4 21 4 26 1 4 3
7 6 7 3 0 4 -9 2 -20z m36 -34 c4 -10 1 -13 -8 -9 -8 3 -12 9 -9 14 7 12 11
11 17 -5z m9 -41 c6 -43 4 -65 -8 -65 -8 0 -14 5 -14 11 0 6 -6 9 -14 6 -10
-4 -14 0 -13 12 1 17 3 18 24 4 15 -10 23 -11 23 -4 0 6 -4 11 -10 11 -5 0
-14 8 -19 18 -7 14 -6 18 10 18 10 0 20 -5 21 -11z m542 -11 c3 -8 2 -12 -4
-9 -6 3 -10 10 -10 16 0 14 7 11 14 -7z m1160 -59 c13 0 20 -8 21 -23 1 -19 0
-20 -14 -8 -17 14 -41 11 -41 -6 0 -6 7 -8 15 -5 8 4 17 1 21 -5 4 -7 3 -8 -4
-4 -7 4 -12 2 -12 -4 0 -7 -6 -10 -12 -7 -7 2 -21 -2 -30 -11 -15 -13 -15 -7
4 49 16 47 23 59 27 44 4 -11 15 -20 25 -20z m-1714 -10 c0 -2 -9 -3 -19 -2
-11 0 -18 5 -15 9 4 6 34 0 34 -7z m69 -17 c1 6 6 12 12 12 8 0 7 -5 -1 -16
-11 -12 -10 -18 5 -32 10 -9 15 -12 11 -5 -3 6 -2 14 3 18 6 3 8 -6 5 -21 -3
-19 -1 -24 8 -18 10 6 11 5 1 -8 -7 -8 -10 -18 -6 -22 4 -4 8 -33 8 -65 1 -49
-2 -57 -19 -59 -14 -1 -16 2 -7 11 15 15 14 40 -1 35 -7 -3 -12 -15 -12 -29 0
-13 -8 -32 -17 -42 -9 -10 -14 -27 -12 -38 3 -10 0 -19 -6 -19 -6 0 -8 -7 -4
-17 4 -11 3 -14 -5 -9 -7 4 -12 3 -12 -2 0 -6 13 -15 29 -20 34 -12 38 -6 36
45 -1 18 2 30 6 27 5 -3 9 0 9 5 0 6 4 11 9 11 14 0 5 -71 -9 -80 -7 -4 -13
-22 -15 -40 -1 -18 -11 -39 -20 -49 -14 -12 -16 -12 -9 -1 10 18 12 70 3 70
-4 0 -14 3 -22 6 -11 4 -14 0 -11 -13 7 -26 -44 -82 -57 -62 -5 8 -7 20 -4 27
8 22 -15 13 -25 -11 -7 -18 -9 -18 -9 -4 -1 10 -5 15 -11 12 -5 -3 -10 -1 -10
4 0 6 4 11 8 11 7 0 9 8 13 65 1 14 6 22 12 18 5 -3 7 -2 4 3 -3 6 -2 16 4 24
7 12 9 10 9 -9 0 -19 3 -21 14 -11 8 6 13 17 10 25 -3 7 -1 16 5 20 14 8 14
25 0 25 -5 0 -7 -5 -3 -12 4 -7 3 -8 -4 -4 -6 4 -8 14 -5 23 4 11 3 14 -5 9
-7 -4 -10 -17 -6 -33 5 -18 4 -24 -5 -19 -6 4 -14 0 -17 -9 -4 -9 -14 -15 -23
-13 -9 1 -22 -1 -28 -5 -9 -6 -11 -3 -7 8 4 10 13 13 26 9 16 -5 18 -3 12 7
-18 29 -7 49 28 53 3 1 10 4 14 8 4 4 13 3 20 -3 9 -7 14 -5 19 11 4 12 11 17
18 13 8 -4 7 -1 -1 9 -9 11 -10 18 -2 23 6 3 7 11 4 17 -4 7 -2 8 5 4 12 -8
17 1 27 49 8 38 8 53 0 85 -5 21 -5 22 3 5 5 -11 10 -14 10 -7z m-309 -8 c-20
-13 -40 -13 -40 0 0 6 12 10 28 10 21 0 24 -2 12 -10z m240 0 c0 -4 -7 -7 -15
-6 -23 3 -26 12 -5 13 11 1 20 -2 20 -7z m191 -63 c-10 -9 -11 -8 -5 6 3 10 9
15 12 12 3 -3 0 -11 -7 -18z m-256 -27 c4 -6 2 -17 -4 -24 -6 -7 -8 -15 -5
-18 3 -3 1 -9 -5 -13 -13 -8 -14 15 -1 35 6 9 5 17 -3 22 -9 6 -9 8 0 8 6 0
15 -5 18 -10z m-31 -9 c3 -5 -2 -15 -12 -22 -15 -12 -16 -12 -5 2 7 9 10 19 6
22 -3 4 -4 7 0 7 3 0 8 -4 11 -9z m-139 -20 c3 -5 2 -12 -3 -15 -5 -3 -9 1 -9
9 0 17 3 19 12 6z m-35 -33 c11 -22 10 -22 -4 -4 -11 13 -16 15 -16 6 0 -7 -3
-11 -6 -7 -6 5 3 27 11 27 2 0 9 -10 15 -22z m140 -23 c-7 -9 -15 -13 -17 -11
-7 7 7 26 19 26 6 0 6 -6 -2 -15z m-96 -7 c-3 -4 -9 -8 -15 -8 -5 0 -9 4 -9 8
0 5 7 9 15 9 8 0 12 -4 9 -9z m116 -13 c-7 -9 -15 -13 -17 -11 -6 6 20 36 26
30 2 -2 -2 -10 -9 -19z m-158 -38 c-7 -8 -9 -17 -5 -21 4 -4 0 -4 -9 -1 -15 6
-15 8 0 25 9 11 18 17 20 15 3 -3 0 -11 -6 -18z m393 2 c-3 -4 -12 -6 -20 -3
-8 4 -13 10 -10 15 3 4 12 6 20 3 8 -4 13 -10 10 -15z m-45 -3 c0 -2 -8 -10
-17 -17 -16 -13 -17 -12 -4 4 13 16 21 21 21 13z m-380 -70 c-1 -5 4 -13 12
-18 11 -8 11 -9 0 -6 -8 2 -13 7 -12 12 1 5 -4 13 -12 18 -11 8 -11 9 0 6 8
-2 13 -7 12 -12z m77 -1 c0 -8 -4 -12 -9 -9 -5 3 -6 10 -3 15 9 13 12 11 12
-6z m-147 -44 c0 -5 -9 -13 -21 -16 -15 -5 -17 -10 -9 -20 8 -10 8 -15 -1 -20
-6 -4 -15 -1 -20 6 -6 10 -1 21 19 36 31 26 32 26 32 14z m240 -65 c0 -2 -7
-7 -16 -10 -8 -3 -12 -2 -9 4 6 10 25 14 25 6z m45 -16 c-3 -5 -12 -10 -18
-10 -7 0 -6 4 3 10 19 12 23 12 15 0z m-200 -9 c3 -5 2 -12 -3 -15 -5 -3 -9 1
-9 9 0 17 3 19 12 6z m2070 -10 c-8 -14 -25 -14 -25 0 0 5 5 7 10 4 6 -3 10
-1 10 6 0 7 3 10 6 6 3 -3 3 -10 -1 -16z m-2186 -5 c10 -12 9 -14 -5 -12 -10
2 -20 8 -22 14 -5 17 13 15 27 -2z m391 4 c0 -5 -7 -7 -15 -4 -8 4 -15 8 -15
10 0 2 7 4 15 4 8 0 15 -4 15 -10z m-60 -10 c0 -5 -5 -10 -11 -10 -5 0 -7 5
-4 10 3 6 8 10 11 10 2 0 4 -4 4 -10z m1867 -15 c0 -17 -13 -20 -21 -6 -4 5 0
12 6 14 7 3 13 6 14 6 0 1 1 -6 1 -14z m-2137 -19 c0 -2 -7 -7 -16 -10 -8 -3
-12 -2 -9 4 6 10 25 14 25 6z m25 -14 c-5 -4 -10 -13 -10 -21 0 -8 -7 -16 -15
-18 -12 -4 -12 -2 -2 5 7 5 12 13 11 18 -3 17 1 24 14 24 7 0 8 -3 2 -8z m-70
-52 c3 -5 1 -10 -4 -10 -6 0 -11 5 -11 10 0 6 2 10 4 10 3 0 8 -4 11 -10z"/>
<path d="M2910 1761 c0 -6 4 -13 10 -16 6 -3 7 1 4 9 -7 18 -14 21 -14 7z"/>
<path d="M1424 1049 c-4 -7 -3 -9 4 -5 5 3 12 0 15 -6 2 -7 7 -10 11 -7 4 3 0
12 -8 18 -11 9 -16 9 -22 0z"/>
<path d="M1268 515 c2 -14 8 -27 12 -30 4 -2 5 7 2 20 -2 14 -8 27 -12 30 -4
2 -5 -7 -2 -20z"/>
<path d="M1120 355 c-8 -9 -8 -15 -2 -15 12 0 26 19 19 26 -2 2 -10 -2 -17
-11z"/>
<path d="M1189 237 c6 -8 7 -18 3 -22 -4 -5 -1 -5 6 -1 10 6 10 11 1 22 -6 8
-14 14 -16 14 -3 0 0 -6 6 -13z"/>
<path d="M4385 2330 l-29 -19 29 2 c28 2 45 13 45 30 0 11 -12 7 -45 -13z"/>
<path d="M4455 2301 c8 -21 -43 -63 -67 -55 -15 4 -19 2 -16 -7 3 -8 11 -14
19 -14 8 -1 13 -7 11 -14 -2 -9 4 -10 19 -6 14 5 19 4 15 -4 -5 -7 -1 -9 8 -5
9 3 14 10 11 14 -3 4 2 13 10 20 10 8 13 21 9 33 -5 14 -2 19 7 15 8 -3 28 1
44 9 l30 13 -32 -4 c-18 -2 -36 1 -39 6 -4 7 -2 8 4 4 7 -4 12 -3 12 2 0 6
-11 9 -25 8 -17 -1 -23 -6 -20 -15z"/>
<path d="M4495 2261 c-3 -5 -1 -12 5 -16 5 -3 10 -2 10 4 0 5 8 12 18 14 13 4
12 5 -5 6 -12 0 -24 -3 -28 -8z"/>
<path d="M1906 2202 c-2 -4 -1 -14 4 -22 7 -11 9 -9 7 8 -1 24 -3 26 -11 14z"/>
<path d="M1525 2161 c-3 -5 -1 -12 5 -16 5 -3 10 -13 10 -21 0 -8 -4 -13 -9
-9 -5 3 -13 0 -17 -7 -5 -8 -10 -6 -15 8 -6 16 -8 16 -8 2 -1 -9 4 -20 9 -23
8 -5 7 -12 -2 -23 -18 -23 42 20 66 47 11 12 25 21 33 21 7 0 13 7 13 15 0 8
-5 15 -11 15 -5 0 -7 -5 -3 -12 5 -8 0 -9 -14 -6 -12 4 -25 2 -28 -3 -3 -5
-10 -7 -15 -3 -5 3 -7 10 -4 15 4 5 4 9 1 9 -3 0 -7 -4 -11 -9z m5 -61 c0 -5
-5 -10 -11 -10 -5 0 -7 5 -4 10 3 6 8 10 11 10 2 0 4 -4 4 -10z"/>
<path d="M1741 2156 c-23 -13 -23 -13 -2 -19 11 -3 21 -1 21 5 0 5 5 6 10 3 6
-3 10 -2 10 4 0 17 -14 20 -39 7z"/>
<path d="M1800 2160 c0 -6 7 -10 15 -10 8 0 15 2 15 4 0 2 -7 6 -15 10 -8 3
-15 1 -15 -4z"/>
<path d="M4401 2144 c0 -11 3 -14 6 -6 3 7 2 16 -1 19 -3 4 -6 -2 -5 -13z"/>
<path d="M4320 2140 c0 -5 5 -10 11 -10 5 0 7 5 4 10 -3 6 -8 10 -11 10 -2 0
-4 -4 -4 -10z"/>
<path d="M1452 2088 c-13 -6 -21 -17 -18 -23 3 -8 -5 -11 -20 -9 -13 1 -22 -1
-19 -6 3 -5 -1 -11 -7 -13 -7 -3 3 -4 22 -3 33 2 89 25 63 26 -7 0 -10 7 -7
15 4 8 11 12 17 8 6 -3 7 -1 3 5 -4 7 -8 12 -9 11 -1 0 -12 -5 -25 -11z"/>
<path d="M1381 2020 c-21 -3 -35 -11 -37 -21 -1 -12 4 -15 18 -11 15 4 17 7 6
14 -9 7 -7 8 8 5 12 -2 28 -1 35 4 20 12 8 16 -30 9z"/>
<path d="M4040 2010 c-8 -5 -10 -10 -5 -10 6 0 17 5 25 10 8 5 11 10 5 10 -5
0 -17 -5 -25 -10z"/>
<path d="M4236 1993 c7 -16 14 -34 14 -42 0 -8 3 -12 6 -8 8 8 -15 77 -26 77
-5 0 -2 -12 6 -27z"/>
<path d="M4210 1986 c0 -8 4 -17 9 -20 5 -4 7 3 4 14 -6 23 -13 26 -13 6z"/>
<path d="M2920 1950 c0 -5 5 -10 11 -10 5 0 7 5 4 10 -3 6 -8 10 -11 10 -2 0
-4 -4 -4 -10z"/>
<path d="M2910 1910 c0 -5 5 -10 10 -10 6 0 10 5 10 10 0 6 -4 10 -10 10 -5 0
-10 -4 -10 -10z"/>
<path d="M3340 1812 c0 -6 8 -17 18 -24 10 -7 30 -34 45 -60 15 -26 32 -50 39
-54 7 -5 8 -3 2 7 -5 8 -9 17 -9 21 0 4 -8 17 -17 28 -10 11 -18 24 -18 28 0
5 -13 21 -30 37 -16 16 -30 24 -30 17z"/>
<path d="M1310 1709 c0 -5 5 -7 10 -4 6 3 10 8 10 11 0 2 -4 4 -10 4 -5 0 -10
-5 -10 -11z"/>
<path d="M1075 1690 c-4 -6 -11 -7 -17 -4 -7 4 -8 2 -4 -4 4 -7 2 -12 -4 -12
-6 0 -8 -4 -5 -10 3 -5 24 -10 46 -10 32 0 39 3 39 20 0 13 -5 18 -15 14 -8
-4 -15 -1 -15 5 0 14 -17 14 -25 1z"/>
<path d="M3501 1649 c0 -9 8 -42 18 -75 11 -32 22 -68 24 -79 3 -11 3 7 -1 40
-3 33 -6 70 -6 83 -1 13 -6 20 -13 18 -6 -3 -14 3 -16 12 -4 14 -5 14 -6 1z"/>
<path d="M1030 1629 c0 -6 7 -8 16 -5 8 3 12 2 9 -4 -10 -15 1 -12 15 5 11 13
8 15 -14 15 -14 0 -26 -5 -26 -11z"/>
<path d="M919 1603 c-12 -16 -12 -17 2 -5 13 10 18 10 28 -1 6 -8 7 -18 3 -22
-4 -5 -1 -5 6 -1 11 6 10 12 -4 27 -21 23 -18 23 -35 2z"/>
<path d="M1029 1603 c0 -5 -2 -16 -4 -25 -2 -10 1 -18 6 -18 5 0 9 11 9 25 0
22 -9 37 -11 18z"/>
<path d="M1153 1590 c-1 -11 2 -20 7 -20 4 0 7 7 6 15 -3 23 -12 26 -13 5z"/>
<path d="M984 1555 c0 -18 4 -31 9 -28 5 3 6 11 3 18 -2 7 0 17 5 22 7 7 6 12
-4 16 -10 4 -13 -4 -13 -28z"/>
<path d="M1180 1570 c0 -6 5 -8 12 -4 8 5 9 2 5 -10 -4 -10 -7 -20 -7 -22 0
-3 -6 -2 -12 2 -9 5 -9 3 0 -7 11 -12 15 -11 28 6 8 10 13 24 11 30 -5 14 -37
19 -37 5z"/>
<path d="M929 1523 c-12 -15 -12 -16 4 -10 10 4 23 7 28 7 6 0 7 5 4 10 -9 15
-21 12 -36 -7z"/>
<path d="M940 1396 c10 -13 40 -12 40 1 0 3 -7 3 -15 -1 -8 -3 -15 -1 -15 4 0
6 -5 10 -11 10 -8 0 -8 -4 1 -14z"/>
<path d="M3560 1271 c0 -5 5 -13 10 -16 6 -3 10 -2 10 4 0 5 -4 13 -10 16 -5
3 -10 2 -10 -4z"/>
<path d="M3358 1168 c-6 -30 -2 -33 22 -18 9 6 10 10 3 10 -6 0 -13 8 -15 18
-3 12 -6 9 -10 -10z"/>
<path d="M3575 1140 c-3 -5 -1 -10 4 -10 6 0 11 5 11 10 0 6 -2 10 -4 10 -3 0
-8 -4 -11 -10z"/>
<path d="M1000 1006 c0 -9 30 -14 35 -6 4 6 -3 10 -14 10 -12 0 -21 -2 -21 -4z"/>
<path d="M3551 934 c0 -11 3 -14 6 -6 3 7 2 16 -1 19 -3 4 -6 -2 -5 -13z"/>
<path d="M3317 843 c-4 -3 -7 -15 -7 -26 0 -25 13 -14 15 13 2 22 1 23 -8 13z"/>
<path d="M3360 776 c0 -2 7 -7 16 -10 8 -3 12 -2 9 4 -6 10 -25 14 -25 6z"/>
<path d="M3291 739 c-7 -12 -10 -24 -7 -27 3 -3 6 0 6 6 0 6 7 12 15 14 8 2
11 8 7 15 -6 9 -11 6 -21 -8z"/>
<path d="M3367 745 c3 -8 9 -12 14 -9 12 7 11 11 -5 17 -10 4 -13 1 -9 -8z"/>
<path d="M3456 703 c-6 -14 -5 -15 5 -6 7 7 10 15 7 18 -3 3 -9 -2 -12 -12z"/>
<path d="M986 671 c-14 -15 -15 -21 -4 -27 7 -4 10 -3 5 1 -4 5 0 17 10 27 9
10 14 18 11 18 -3 0 -13 -9 -22 -19z"/>
<path d="M3440 664 c0 -8 5 -12 10 -9 6 4 8 11 5 16 -9 14 -15 11 -15 -7z"/>
<path d="M947 643 c-4 -3 -7 -11 -7 -17 0 -6 5 -5 12 2 6 6 9 14 7 17 -3 3 -9
2 -12 -2z"/>
<path d="M956 505 c4 -8 7 -15 9 -15 2 0 5 7 9 15 3 9 0 15 -9 15 -9 0 -12 -6
-9 -15z"/>
<path d="M751 496 c-9 -11 -9 -16 0 -22 7 -4 9 -3 5 4 -3 5 0 12 6 15 7 2 10
7 7 11 -3 4 -12 0 -18 -8z"/>
<path d="M720 481 c0 -6 4 -13 10 -16 6 -3 7 1 4 9 -7 18 -14 21 -14 7z"/>
<path d="M795 450 c-3 -5 -1 -10 4 -10 6 0 11 5 11 10 0 6 -2 10 -4 10 -3 0
-8 -4 -11 -10z"/>
<path d="M688 393 c-9 -10 -13 -24 -10 -32 3 -9 0 -11 -8 -6 -9 5 -11 4 -6 -4
10 -16 39 6 32 24 -2 7 1 18 7 24 6 6 9 11 6 11 -3 0 -13 -8 -21 -17z"/>
<path d="M722 374 c10 -10 20 -16 22 -13 3 3 -5 11 -17 18 -21 13 -21 12 -5
-5z"/>
<path d="M760 376 c0 -2 7 -7 16 -10 8 -3 12 -2 9 4 -6 10 -25 14 -25 6z"/>
<path d="M636 332 c-2 -4 4 -9 15 -9 11 -1 17 2 14 8 -7 11 -22 12 -29 1z"/>
<path d="M785 320 c-3 -6 1 -7 9 -4 18 7 21 14 7 14 -6 0 -13 -4 -16 -10z"/>
<path d="M3175 320 c-3 -6 1 -7 9 -4 18 7 21 14 7 14 -6 0 -13 -4 -16 -10z"/>
<path d="M3176 288 c3 -5 10 -6 15 -3 13 9 11 12 -6 12 -8 0 -12 -4 -9 -9z"/>
<path d="M710 236 c0 -2 8 -10 18 -17 15 -13 16 -12 3 4 -13 16 -21 21 -21 13z"/>
<path d="M3010 139 c0 -5 5 -7 10 -4 6 3 10 8 10 11 0 2 -4 4 -10 4 -5 0 -10
-5 -10 -11z"/>
</g>
</svg>
